<?xml version="1.0" encoding="UTF-8"?>
<svg width="30px" height="42px" viewBox="0 0 30 42" version="1.1" xmlns="http://www.w3.org/2000/svg" xmlns:xlink="http://www.w3.org/1999/xlink">
    <!-- Generator: Sketch 40.3 (33839) - http://www.bohemiancoding.com/sketch -->
    <title>Combined Shape</title>
    <desc>Created with Sketch.</desc>
    <defs></defs>
    <g id="Page-1" stroke="none" stroke-width="1" fill="none" fill-rule="evenodd">
        <g id="Card" transform="translate(-125.000000, -20.000000)" stroke="#FFFFFF" stroke-width="2" fill="#FFFFFF">
            <path d="M141.728949,24.1285788 C141.367223,24.7015673 140.728098,25.0822019 140,25.0822019 C139.356644,25.0822019 138.782755,24.7850139 138.408329,24.3205323 L130.081162,27.8867105 C130.083979,27.9305763 130.085409,27.9748193 130.085409,28.019396 C130.085409,28.7881401 129.660089,29.4576234 129.031752,29.8057164 L129.031752,40.1723015 C129.538723,40.4531587 129.91353,40.9432406 130.039407,41.5258726 L138.578373,45.4712265 C138.946091,45.1150539 139.447422,44.895816 140,44.895816 C141.128155,44.895816 142.042705,45.809648 142.042705,46.936917 C142.042705,48.0641859 141.128155,48.9780179 140,48.9780179 C138.871845,48.9780179 137.957295,48.0641859 137.957295,46.936917 C137.957295,46.9195058 137.957514,46.9021456 137.957947,46.8848388 L129.743522,43.0894364 C129.377365,43.638201 128.752287,43.9997229 128.042705,43.9997229 C126.91455,43.9997229 126,43.0858909 126,41.958622 C126,41.0237296 126.629036,40.2356411 127.487268,39.9938829 L127.487268,29.984135 C126.629036,29.7423768 126,28.9542884 126,28.019396 C126,26.892127 126.91455,25.978295 128.042705,25.978295 C128.565669,25.978295 129.042733,26.1746644 129.404074,26.4976355 L137.968085,22.830027 C138.073792,21.8019331 138.943172,21 140,21 C140.960367,21 141.765943,21.6622226 141.984322,22.5546024 L150.716019,26.3982319 C151.060062,26.1348247 151.490385,25.978295 151.957295,25.978295 C153.08545,25.978295 154,26.892127 154,28.019396 C154,29.1466649 153.08545,30.0604969 151.957295,30.0604969 C150.829141,30.0604969 149.914591,29.1466649 149.914591,28.019396 C149.914591,27.9246794 149.921047,27.8314696 149.933545,27.7401822 L141.728949,24.1285788 Z M141.629878,36.2195476 C141.256942,36.7119645 140.665654,37.0301099 140,37.0301099 C138.871845,37.0301099 137.957295,36.1162779 137.957295,34.989009 C137.957295,33.86174 138.871845,32.947908 140,32.947908 C141.030203,32.947908 141.882284,33.7099434 142.022481,34.7006716 L150.4469,38.5931002 C150.820504,38.1833517 151.358846,37.926203 151.957295,37.926203 C153.08545,37.926203 154,38.840035 154,39.967304 C154,40.7868149 153.51665,41.4935219 152.819268,41.8183183 L152.819268,52.0555156 C153.51665,52.380312 154,53.0870191 154,53.90653 C154,55.0337989 153.08545,55.9476309 151.957295,55.9476309 C151.413133,55.9476309 150.918668,55.73502 150.552562,55.388398 L142.037249,59.0351513 C141.960238,60.0922283 141.077556,60.9259259 140,60.9259259 C138.918311,60.9259259 138.032993,60.0858195 137.961901,59.022976 L129.52622,55.309651 C129.153907,55.7025443 128.62695,55.9476309 128.042705,55.9476309 C126.91455,55.9476309 126,55.0337989 126,53.90653 C126,52.779261 126.91455,51.865429 128.042705,51.865429 C129.158402,51.865429 130.065185,52.7591904 130.085076,53.8692653 L138.452438,57.5525171 C138.827031,57.1184774 139.381404,56.843724 140,56.843724 C140.623205,56.843724 141.181228,57.1225875 141.555906,57.5622467 L149.915961,53.9819843 C149.91505,53.9569453 149.914591,53.9317912 149.914591,53.90653 C149.914591,53.0184231 150.482244,52.2627945 151.274784,51.9821409 L151.274784,41.891693 C150.506406,41.6195958 149.949412,40.9010435 149.916164,40.0481527 L141.629878,36.2195476 Z" id="Combined-Shape"></path>
        </g>
    </g>
</svg>