<svg xmlns="http://www.w3.org/2000/svg" width="24" height="20" viewBox="0 0 24 20">
  <path fill="#000000" d="M268.646609,15.1707521 L263.353391,15.1707521 C262.954437,15.1707521 262.629922,15.5013197 262.629922,15.9077129 L262.629922,17.5614581 C262.629922,17.9678513 262.954437,18.2984667 263.353391,18.2984667 L268.646656,18.2984667 C269.045609,18.2984667 269.370172,17.9678991 269.370172,17.5614581 L269.370172,15.9077129 C269.370078,15.5013674 269.045563,15.1707521 268.646609,15.1707521 Z M268.439891,17.3509319 L263.560063,17.3509319 L263.560063,16.1183346 L268.439891,16.1183346 L268.439891,17.3509319 Z M277.7645,11.0750183 L277.771953,11.0711984 L274.284219,4.04710289 C274.002266,3.47936512 273.439297,3.12673742 272.814875,3.12673742 L272.152016,3.12673742 L272.152016,2.47376737 C272.152016,2.21210186 271.943797,2 271.686922,2 L260.313125,2 C260.05625,2 259.848031,2.21210186 259.848031,2.47376737 L259.848031,3.12673742 L259.185172,3.12673742 C258.56075,3.12673742 257.997781,3.47936512 257.715828,4.04710289 L254.228047,11.0711984 L254.2355,11.0750183 C254.086109,11.3256538 254,11.6195977 254,11.9335964 L254,19.3542488 C254,20.2692186 254.730781,21.0135806 255.629,21.0135806 L276.371047,21.0135806 C277.269266,21.0135806 278,20.2691709 278,19.3542488 L278,11.9335964 C278,11.6195977 277.913891,11.3256538 277.7645,11.0750183 Z M272.151969,4.17955911 L272.814828,4.17955911 C273.047281,4.17955911 273.256859,4.31091711 273.361906,4.52235048 L276.218,10.2743123 L274.275922,10.2743123 L274.275922,8.50444118 C274.275922,8.24277567 274.067703,8.0306738 273.810828,8.0306738 L273.235437,8.0306738 L273.235437,5.48912815 C273.235437,5.22746264 273.027219,5.01536078 272.770344,5.01536078 L272.151969,5.01536078 L272.151969,4.17955911 Z M273.345781,8.9781608 L273.345781,10.2742646 L270.891453,10.2742646 C270.470328,10.2742646 270.086422,10.527001 269.913406,10.918019 L269.243281,12.4321456 C269.236906,12.4464226 269.222891,12.4556859 269.207469,12.4556859 L262.792578,12.4556859 C262.777156,12.4556859 262.763141,12.4464226 262.756766,12.4320978 L262.086687,10.9180668 C261.913625,10.527001 261.529719,10.2742646 261.108594,10.2742646 L258.654266,10.2742646 L258.654266,8.9781608 L273.345781,8.9781608 L273.345781,8.9781608 Z M260.778219,2.94753475 L271.221781,2.94753475 L271.221781,5.01531303 L260.778219,5.01531303 L260.778219,2.94753475 Z M272.30525,5.96284777 L272.30525,8.03062606 L259.69475,8.03062606 L259.69475,5.96284777 L272.30525,5.96284777 Z M258.638094,4.52235048 C258.743094,4.31086936 258.952719,4.17955911 259.185172,4.17955911 L259.848031,4.17955911 L259.848031,5.01531303 L259.229656,5.01531303 C258.972781,5.01531303 258.764563,5.22741489 258.764563,5.4890804 L258.764563,8.03062606 L258.189172,8.03062606 C257.932297,8.03062606 257.724078,8.24272792 257.724078,8.50439343 L257.724078,10.2742646 L255.782,10.2742646 L258.638094,4.52235048 Z M276.371047,19.9607112 L255.629,19.9607112 C255.300688,19.9607112 255.033547,19.6885886 255.033547,19.3542488 L255.033547,11.9335964 C255.033547,11.5992088 255.300641,11.327134 255.629,11.327134 L261.108594,11.327134 C261.123969,11.327134 261.138078,11.3363974 261.144453,11.3507699 L261.814531,12.8648009 C261.987594,13.2558667 262.371453,13.5085076 262.792578,13.5085076 L269.207422,13.5085076 C269.628547,13.5085076 270.012453,13.2558189 270.185469,12.8648486 L270.855594,11.3507699 L270.855594,11.3507221 C270.861969,11.3363974 270.875984,11.327134 270.891406,11.327134 L276.371,11.327134 C276.699313,11.327134 276.966359,11.5992566 276.966359,11.9335964 L276.966359,19.3542488 L276.966406,19.3542488 C276.966453,19.6886841 276.699359,19.9607112 276.371047,19.9607112 Z" transform="translate(-254 -2)"/>
</svg>
