<svg xmlns="http://www.w3.org/2000/svg" width="24" height="24" viewBox="0 0 24 24">
  <path fill="#000000" d="M15.5999695,119.845964 L14.3999719,119.845964 L14.3999719,117.915767 C14.3999719,117.702693 14.221191,117.529746 13.9999883,117.529746 C13.7787856,117.529746 13.6000047,117.702693 13.6000047,117.915767 L13.6000047,120.231986 C13.6000047,120.44506 13.7787856,120.618007 13.9999883,120.618007 L15.5999695,120.618007 C16.3523587,120.618007 16.6339831,121.046914 16.7387486,121.390095 L11.599993,121.390095 C11.3787903,121.390095 11.2000094,121.563042 11.2000094,121.776116 C11.2000094,121.98919 11.3787903,122.162137 11.599993,122.162137 L17.1999977,122.162137 C17.4212003,122.162137 17.5999813,121.98919 17.5999813,121.776116 C17.5999813,121.10871 17.1819508,119.845964 15.5999695,119.845964 Z M5.2119742,119.845964 L5.20756795,119.845964 C4.98716213,119.845964 4.80997498,120.018912 4.80997498,120.231986 C4.80997498,120.44506 4.9907715,120.618007 5.2119742,120.618007 C5.43275501,120.618007 5.61195779,120.44506 5.61195779,120.231986 C5.61195779,120.018912 5.43280189,119.845964 5.2119742,119.845964 Z M11.599993,120.618052 L12.400007,120.618052 C12.6212097,120.618052 12.7999906,120.445105 12.7999906,120.232031 C12.7999906,120.018957 12.6212097,119.84601 12.400007,119.84601 L11.599993,119.84601 C11.3787903,119.84601 11.2000094,120.018957 11.2000094,120.232031 C11.2000094,120.445105 11.3787903,120.618052 11.599993,120.618052 Z M9.19999766,109.036961 L1.19999766,109.036961 C0.538405198,109.036961 0,109.556572 0,110.19507 L0,121.004073 C0,121.642572 0.538405198,122.162183 1.19999766,122.162183 L9.19999766,122.162183 C9.86159011,122.162183 10.3999953,121.642572 10.3999953,121.004073 L10.3999953,110.19507 C10.3999953,109.556572 9.86159011,109.036961 9.19999766,109.036961 Z M9.59998125,121.004073 C9.59998125,121.216786 9.42077848,121.390095 9.19999766,121.390095 L1.19999766,121.390095 C0.979216837,121.390095 0.800014062,121.216786 0.800014062,121.004073 L0.800014062,110.19507 C0.800014062,109.982358 0.979216837,109.809049 1.19999766,109.809049 L9.19999766,109.809049 C9.42077848,109.809049 9.59998125,109.982358 9.59998125,110.19507 L9.59998125,121.004073 L9.59998125,121.004073 Z M17.7171685,101.429315 C17.8735432,101.278399 18.1263865,101.278399 18.2827612,101.429315 L21.4827705,104.517621 C21.6391921,104.668537 21.6391921,104.912509 21.4827705,105.06347 C21.4047707,105.138747 21.3023959,105.176567 21.1999742,105.176567 C21.0975994,105.176567 20.9951777,105.138747 20.9171779,105.06347 L17.7171685,101.975164 C17.5607938,101.824248 17.5607938,101.580276 17.7171685,101.429315 Z M21.9999414,99 C23.1027674,99 23.9999531,99.8658675 24,100.930197 L24,114.44144 C24,115.512284 23.1259705,116.757658 21.9999883,116.757658 L11.599993,116.757658 C11.3787903,116.757658 11.2000094,116.584711 11.2000094,116.371637 C11.2000094,116.158563 11.3787903,115.985616 11.599993,115.985616 L21.9999414,115.985616 C22.6351433,115.985616 23.1999391,115.122055 23.1999391,114.441485 L23.1999391,100.930197 C23.1999391,100.291699 22.6615339,99.7720878 21.9999414,99.7720878 L1.99996484,99.7720878 C1.33837239,99.7720878 0.799967188,100.291699 0.799967188,100.930197 L0.799967188,107.878852 C0.799967188,108.091926 0.621186287,108.264873 0.399983594,108.264873 C0.178780901,108.264873 0,108.091926 0,107.878852 L0,100.930197 C0,99.8658675 0.897185748,99 2.00001172,99 L21.9999414,99 Z M11.9999766,115.213528 C11.5587899,115.213528 11.1999625,114.867271 11.1999625,114.44144 C11.1999625,114.015609 11.5587899,113.669352 11.9999766,113.669352 C12.4412101,113.669352 12.7999906,114.015654 12.7999906,114.44144 C12.7999906,114.867271 12.4411632,115.213528 11.9999766,115.213528 Z M11.1999625,112.511288 C11.1999625,112.298169 11.3787903,112.125222 11.599993,112.125267 L21.9999414,112.125267 C22.2211441,112.125267 22.399925,112.298214 22.399925,112.511288 C22.399925,112.724362 22.2211441,112.89731 21.9999414,112.89731 L11.5999461,112.89731 C11.3787434,112.89731 11.1999625,112.724362 11.1999625,112.511288 Z M21.1999742,102.860349 C21.0975525,102.860349 20.9951777,102.822529 20.9171779,102.747252 L20.1171638,101.975164 C19.9607891,101.824248 19.9607891,101.580276 20.1171638,101.429315 C20.2735385,101.278354 20.5263349,101.278354 20.6827565,101.429315 L21.4827705,102.201403 C21.6391921,102.352319 21.6391921,102.596291 21.4827705,102.747252 C21.4047707,102.822529 21.3023959,102.860349 21.1999742,102.860349 Z" transform="translate(0 -99)"/>
</svg>
