<svg xmlns="http://www.w3.org/2000/svg" width="24" height="22" viewBox="0 0 24 22">
  <path fill="#000000" d="M232.064479,64.0472384 C231.987612,64.0472384 231.911632,64.0426183 231.837047,64.0338914 C231.808127,64.0426183 231.777557,64.0472384 231.745973,64.0472384 L212.326075,64.0472384 C211.04355,64.0472384 210,62.9914114 210,61.6937978 L210,43.320842 C210,43.1436089 210.141939,43 210.317111,43 L230.442645,43 C230.617817,43 230.759756,43.1436089 230.759756,43.320842 L230.759756,45.9480251 L230.761659,45.9480251 L233.367426,45.9480251 C233.716249,45.9480251 234,46.2351145 234,46.5881691 L234,62.0889469 C234,63.1687729 233.131749,64.0472384 232.064479,64.0472384 Z M233.365777,46.5881691 L230.761532,46.5897092 L230.763054,62.0889469 C230.763054,62.8149483 231.346793,63.4055543 232.064352,63.4055543 C232.781912,63.4055543 233.365651,62.8149483 233.365651,62.0889469 L233.365651,46.5881691 L233.365777,46.5881691 Z M210.634223,43.6416841 L210.634223,61.6937978 C210.634223,62.6375868 211.393133,63.4055543 212.326075,63.4055543 L230.629614,63.4055543 C230.314532,63.0545531 230.125407,62.5897171 230.125407,62.0889469 L230.125407,43.6416841 L210.634223,43.6416841 Z M224.945837,60.9153067 L222.591476,60.9153067 C222.416304,60.9153067 222.274365,60.7716978 222.274365,60.5944646 C222.274365,60.4172315 222.416304,60.2736226 222.591476,60.2736226 L224.945964,60.2736226 C225.121137,60.2736226 225.263076,60.4172315 225.263076,60.5944646 C225.263076,60.7716978 225.12101,60.9153067 224.945837,60.9153067 Z M229.141854,60.8920777 L226.397573,60.8920777 C226.222401,60.8920777 226.080462,60.7484688 226.080462,60.5712356 L226.080462,57.3363778 C226.080462,57.1591446 226.222401,57.0155357 226.397573,57.0155357 L229.141854,57.0155357 C229.317027,57.0155357 229.458966,57.1591446 229.458966,57.3363778 L229.458966,60.5712356 C229.458966,60.7484688 229.317027,60.8920777 229.141854,60.8920777 Z M226.714684,60.2503936 L228.824743,60.2503936 L228.824743,57.6572198 L226.714684,57.6572198 L226.714684,60.2503936 Z M221.102321,60.8920777 L217.249926,60.8920777 C217.074754,60.8920777 216.932815,60.7484688 216.932815,60.5712356 C216.932815,60.3940025 217.074754,60.2503936 217.249926,60.2503936 L221.102321,60.2503936 C221.277494,60.2503936 221.419433,60.3940025 221.419433,60.5712356 C221.419433,60.7484688 221.277494,60.8920777 221.102321,60.8920777 Z M215.70052,60.8920777 L212.050315,60.8920777 C211.875143,60.8920777 211.733204,60.7484688 211.733204,60.5712356 L211.733204,54.0350414 C211.733204,53.8578083 211.875143,53.7141994 212.050315,53.7141994 L215.70052,53.7141994 C215.875692,53.7141994 216.017631,53.8578083 216.017631,54.0350414 L216.017631,60.5712356 C216.017631,60.7484688 215.875692,60.8920777 215.70052,60.8920777 Z M212.367426,60.2503936 L215.383409,60.2503936 L215.383409,54.3558835 L212.367426,54.3558835 L212.367426,60.2503936 Z M224.244768,59.2813223 L222.591476,59.2813223 C222.416304,59.2813223 222.274365,59.1377134 222.274365,58.9604802 C222.274365,58.7832471 222.416304,58.6396382 222.591476,58.6396382 L224.244768,58.6396382 C224.41994,58.6396382 224.561879,58.7832471 224.561879,58.9604802 C224.561879,59.1377134 224.41994,59.2813223 224.244768,59.2813223 Z M219.955139,59.2580933 L217.249926,59.2580933 C217.074754,59.2580933 216.932815,59.1144844 216.932815,58.9372513 C216.932815,58.7600181 217.074754,58.6164092 217.249926,58.6164092 L219.955139,58.6164092 C220.130312,58.6164092 220.272251,58.7600181 220.272251,58.9372513 C220.272251,59.1144844 220.130312,59.2580933 219.955139,59.2580933 Z M224.945837,57.6472095 L222.591476,57.6472095 C222.416304,57.6472095 222.274365,57.5036006 222.274365,57.3263675 C222.274365,57.1491343 222.416304,57.0055254 222.591476,57.0055254 L224.945964,57.0055254 C225.121137,57.0055254 225.263076,57.1491343 225.263076,57.3263675 C225.263076,57.5036006 225.12101,57.6472095 224.945837,57.6472095 Z M221.102321,57.6239806 L217.249926,57.6239806 C217.074754,57.6239806 216.932815,57.4803717 216.932815,57.3031385 C216.932815,57.1259054 217.074754,56.9822965 217.249926,56.9822965 L221.102321,56.9822965 C221.277494,56.9822965 221.419433,57.1259054 221.419433,57.3031385 C221.419433,57.4803717 221.277494,57.6239806 221.102321,57.6239806 Z M228.050992,56.0132252 L226.397573,56.0132252 C226.222401,56.0132252 226.080462,55.8696163 226.080462,55.6923831 C226.080462,55.51515 226.222401,55.3715411 226.397573,55.3715411 L228.050992,55.3715411 C228.226164,55.3715411 228.368103,55.51515 228.368103,55.6923831 C228.368103,55.8696163 228.226164,56.0132252 228.050992,56.0132252 Z M224.244768,56.0132252 L222.591476,56.0132252 C222.416304,56.0132252 222.274365,55.8696163 222.274365,55.6923831 C222.274365,55.51515 222.416304,55.3715411 222.591476,55.3715411 L224.244768,55.3715411 C224.41994,55.3715411 224.561879,55.51515 224.561879,55.6923831 C224.561879,55.8696163 224.41994,56.0132252 224.244768,56.0132252 Z M219.955139,55.9899962 L217.249926,55.9899962 C217.074754,55.9899962 216.932815,55.8463873 216.932815,55.6691541 C216.932815,55.491921 217.074754,55.3483121 217.249926,55.3483121 L219.955139,55.3483121 C220.130312,55.3483121 220.272251,55.491921 220.272251,55.6691541 C220.272251,55.8463873 220.130312,55.9899962 219.955139,55.9899962 Z M228.893366,54.3792408 L226.3977,54.3792408 C226.222528,54.3792408 226.080589,54.2356319 226.080589,54.0583987 C226.080589,53.8811656 226.222528,53.7375567 226.3977,53.7375567 L228.893366,53.7375567 C229.068538,53.7375567 229.210477,53.8811656 229.210477,54.0583987 C229.210477,54.2356319 229.068538,54.3792408 228.893366,54.3792408 Z M225.087142,54.3792408 L222.591476,54.3792408 C222.416304,54.3792408 222.274365,54.2356319 222.274365,54.0583987 C222.274365,53.8811656 222.416304,53.7375567 222.591476,53.7375567 L225.087142,53.7375567 C225.262314,53.7375567 225.404254,53.8811656 225.404254,54.0583987 C225.404254,54.2356319 225.262314,54.3792408 225.087142,54.3792408 Z M221.031542,54.3558835 L217.249926,54.3558835 C217.074754,54.3558835 216.932815,54.2122746 216.932815,54.0350414 C216.932815,53.8578083 217.074754,53.7141994 217.249926,53.7141994 L221.031542,53.7141994 C221.206714,53.7141994 221.348653,53.8578083 221.348653,54.0350414 C221.348653,54.2122746 221.206714,54.3558835 221.031542,54.3558835 Z M227.964357,52.0908669 L222.685975,52.0908669 C222.510803,52.0908669 222.368864,51.947258 222.368864,51.7700249 C222.368864,51.5927917 222.510803,51.4491828 222.685975,51.4491828 L227.964357,51.4491828 C228.139529,51.4491828 228.281468,51.5927917 228.281468,51.7700249 C228.281468,51.947258 228.139529,52.0908669 227.964357,52.0908669 Z M221.29411,52.0908669 L212.050315,52.0908669 C211.875143,52.0908669 211.733204,51.947258 211.733204,51.7700249 L211.733204,45.2338307 C211.733204,45.0565975 211.875143,44.9129886 212.050315,44.9129886 L221.29411,44.9129886 C221.469282,44.9129886 221.611222,45.0565975 221.611222,45.2338307 L221.611222,51.7700249 C221.611222,51.947258 221.469282,52.0908669 221.29411,52.0908669 Z M212.367426,51.4491828 L220.976999,51.4491828 L220.976999,45.5546727 L212.367426,45.5546727 L212.367426,51.4491828 Z M228.633969,50.4568826 L222.685848,50.4568826 C222.510676,50.4568826 222.368737,50.3132737 222.368737,50.1360405 C222.368737,49.9588074 222.510676,49.8151985 222.685848,49.8151985 L228.633969,49.8151985 C228.809141,49.8151985 228.95108,49.9588074 228.95108,50.1360405 C228.95108,50.3132737 228.809141,50.4568826 228.633969,50.4568826 Z M227.964357,48.8227698 L222.685975,48.8227698 C222.510803,48.8227698 222.368864,48.6791609 222.368864,48.5019278 C222.368864,48.3246946 222.510803,48.1810857 222.685975,48.1810857 L227.964357,48.1810857 C228.139529,48.1810857 228.281468,48.3246946 228.281468,48.5019278 C228.281468,48.6791609 228.139529,48.8227698 227.964357,48.8227698 Z M227.176525,47.1887855 L222.685975,47.1887855 C222.510803,47.1887855 222.368864,47.0451766 222.368864,46.8679434 C222.368864,46.6907103 222.510803,46.5471014 222.685975,46.5471014 L227.176525,46.5471014 C227.351698,46.5471014 227.493637,46.6907103 227.493637,46.8679434 C227.493637,47.0451766 227.351698,47.1887855 227.176525,47.1887855 Z M228.633969,45.5546727 L222.685848,45.5546727 C222.510676,45.5546727 222.368737,45.4110638 222.368737,45.2338307 C222.368737,45.0565975 222.510676,44.9129886 222.685848,44.9129886 L228.633969,44.9129886 C228.809141,44.9129886 228.95108,45.0565975 228.95108,45.2338307 C228.95108,45.4110638 228.809141,45.5546727 228.633969,45.5546727 Z" transform="translate(-210 -43)"/>
</svg>
