<svg xmlns="http://www.w3.org/2000/svg" width="24" height="19" viewBox="0 0 24 19">
  <path fill="#000000" d="M433.838633,103 L418.27679,103 C417.088038,103 416.115422,103.956024 416.115422,105.124499 L416.115422,105.868073 L413.608237,106.547913 C413.046281,106.696628 412.57078,107.036548 412.289803,107.525182 C412.008825,108.013817 411.92237,108.587432 412.073666,109.139801 L415.09958,120.229684 C415.250876,120.782054 415.596694,121.249444 416.093809,121.525629 C416.418014,121.716834 416.80706,121.823058 417.174492,121.823058 C417.369015,121.823058 417.541925,121.801813 417.736448,121.759323 L427.635509,119.14619 L433.838633,119.14619 C435.027385,119.14619 436,118.190166 436,117.021691 L436,105.124499 C436,103.956024 435.027385,103 433.838633,103 Z M417.520311,120.930769 C417.174492,121.015749 416.828674,120.973259 416.526082,120.803299 C416.223491,120.633339 416.007354,120.357154 415.920899,120.017235 L412.894985,108.927351 C412.808531,108.587432 412.851758,108.247512 413.024667,107.950082 C413.197577,107.652652 413.478555,107.440202 413.824373,107.355222 L416.115422,106.739118 L416.115422,117.021691 C416.115422,118.190166 417.088038,119.14619 418.27679,119.14619 L424.28539,119.14619 L417.520311,120.930769 Z M435.135453,117.021691 C435.135453,117.722776 434.551884,118.296391 433.838633,118.296391 L418.27679,118.296391 C417.563538,118.296391 416.979969,117.722776 416.979969,117.021691 L416.979969,105.124499 C416.979969,104.423414 417.563538,103.849799 418.27679,103.849799 L433.838633,103.849799 C434.551884,103.849799 435.135453,104.423414 435.135453,105.124499 L435.135453,111.158075 L433.082154,109.139801 C432.736336,108.799881 432.217608,108.799881 431.871789,109.139801 L426.922258,113.983658 L426.900644,113.962413 L424.393459,111.497995 C424.069253,111.17932 423.507298,111.17932 423.183093,111.497995 L421.064953,113.580004 C420.892044,113.749963 420.892044,114.004903 421.064953,114.174863 C421.237863,114.344823 421.497227,114.344823 421.670136,114.174863 L423.788276,112.092854 L426.295462,114.557273 L426.317075,114.578518 L424.566368,116.299362 C424.393459,116.469322 424.393459,116.724262 424.566368,116.894221 C424.652823,116.979201 424.760891,117.021691 424.868959,117.021691 C424.977028,117.021691 425.085096,116.979201 425.171551,116.894221 L432.476972,109.734661 L435.048998,112.262814 C435.070612,112.284059 435.113839,112.305304 435.135453,112.326549 L435.135453,117.021691 Z M423.031797,107.673897 C423.031797,106.505423 422.059182,105.549398 420.87043,105.549398 C419.681678,105.549398 418.709063,106.505423 418.709063,107.673897 C418.709063,108.842371 419.681678,109.798396 420.87043,109.798396 C422.059182,109.798396 423.031797,108.842371 423.031797,107.673897 Z M420.87043,108.948596 C420.157179,108.948596 419.57361,108.374982 419.57361,107.673897 C419.57361,106.972813 420.157179,106.399198 420.87043,106.399198 C421.583681,106.399198 422.16725,106.972813 422.16725,107.673897 C422.16725,108.374982 421.583681,108.948596 420.87043,108.948596 Z" transform="translate(-412 -103)"/>
</svg>
