<svg xmlns="http://www.w3.org/2000/svg" width="24" height="24" viewBox="0 0 24 24">
  <path fill="#000000" d="M4.79334567,38.6446472 C5.25555676,38.6446472 5.63025288,38.2699511 5.63025288,37.80774 C5.63025288,37.3455289 5.25555676,36.9708328 4.79334567,36.9708328 C4.33113458,36.9708328 3.95643846,37.3455289 3.95643846,37.80774 C3.95643846,38.2699511 4.33113458,38.6446472 4.79334567,38.6446472 Z M23.9825642,43.5981252 L21.4875409,29.0025726 C21.4333523,28.6854304 21.2590119,28.4081889 20.9964334,28.2221486 C20.7334786,28.0357708 20.4137875,27.9625322 20.0970204,28.018183 L6.90920126,30.2729789 C6.25954136,30.383568 5.81714952,31.0031895 5.9229739,31.6535991 L6.21169077,33.4311627 L1.00140159,34.3218756 C0.346979494,34.4339277 -0.0947019343,35.0579368 0.0173871785,35.7127337 L2.51241153,50.3053615 C2.61276285,50.8916825 3.12325806,51.3069632 3.698929,51.3069632 C3.76631745,51.3069632 3.83445588,51.3011137 3.90293189,51.2894134 L17.0845253,49.0360801 C17.7393258,48.9236531 18.1805922,48.2996061 18.06854,47.6455595 L17.7699607,45.8990467 L23.0021878,44.9875585 C23.6548091,44.8740057 24.0946149,44.250335 23.9825642,43.5981252 Z M16.957814,48.2970569 L3.77621771,50.5503516 C3.52976412,50.5925023 3.29392333,50.425851 3.25143506,50.1786463 L0.756410559,35.5860572 C0.714297439,35.3388533 0.880912317,35.1033498 1.12811603,35.0608994 L14.3097095,32.807566 C14.3353232,32.8031786 14.3613474,32.8009659 14.3873359,32.8009659 C14.4807124,32.8009659 14.5715384,32.8298788 14.6495396,32.8848173 C14.7484281,32.9547932 14.8143541,33.059495 14.8348294,33.1788965 L14.8348294,33.1792717 L17.3295165,47.771898 C17.3716299,48.0187282 17.2050143,48.2545687 16.957814,48.2970569 Z M8.65860164,32.6559514 C8.65128877,32.597713 8.69047677,32.5442372 8.74796557,32.5343747 L19.1016429,30.7644236 C19.1397051,30.7589483 19.1661056,30.7710238 19.1833192,30.7830989 C19.1997817,30.7948364 19.2210066,30.8168119 19.227607,30.8537872 L19.7298899,33.7910178 L17.2185528,32.5750251 C17.0566995,32.4973615 16.8622229,32.5442372 16.7541848,32.6889144 L15.7441058,34.0487218 L15.573891,33.052932 C15.5200415,32.7357901 15.345362,32.4585486 15.0824101,32.2725082 C14.8198302,32.0864678 14.5019744,32.0136044 14.1829957,32.0685425 L8.69602719,33.0065066 C8.69576469,32.9922563 8.70078943,32.9791312 8.69887754,32.964656 L8.65860164,32.6559514 Z M15.9131576,35.0376861 C15.9411731,35.0166108 15.9719596,34.9999237 15.993934,34.9704483 L17.1713024,33.3854497 L19.6630254,34.5921425 C19.7311274,34.6248431 19.8024523,34.6286676 19.8716414,34.6200429 L20.634965,39.0841463 C20.6448671,39.1427216 20.6071397,39.1976604 20.5481889,39.2090232 L16.7543336,39.9582095 L15.9131576,35.0376861 Z M22.8732978,44.248534 L17.6435469,45.1595729 L16.8808227,40.697945 L20.6932034,39.9451216 C21.1542726,39.8546704 21.45349,39.421051 21.3739881,38.9578066 L19.9666302,30.727448 C19.9281918,30.5011322 19.8036525,30.3033542 19.6165245,30.1707898 C19.4297728,30.0386004 19.202331,29.9869621 18.9753026,30.0254002 L8.62162595,31.7953512 C8.16531968,31.8736897 7.85511515,32.2944837 7.91481554,32.7526278 L7.95546625,33.0627948 C7.95869138,33.0870202 7.97054121,33.1069328 7.97789128,33.1292459 L6.95116588,33.3047858 L6.66346003,31.5331099 C6.6231841,31.2877435 6.79017447,31.0541154 7.03554227,31.0120019 L20.2240709,28.7572064 C20.3420097,28.7370686 20.4635864,28.7638065 20.562851,28.83412 C20.6620771,28.9044336 20.7280032,29.0091726 20.7485156,29.1292869 L23.2435403,43.7244639 C23.2856559,43.9705801 23.1197513,44.2056709 22.8732978,44.248534 Z M13.0612794,34.0757596 L2.72627691,35.8423736 C2.25935754,35.9222123 1.94476556,36.3671937 2.02460412,36.8341131 L3.42978746,45.0523587 C3.50118855,45.4702273 3.86520614,45.766482 4.27609981,45.766482 C4.32406305,45.766482 4.37240111,45.7624694 4.42111433,45.7540321 L14.7564916,43.9874188 C15.2234131,43.9075794 15.5379643,43.4629727 15.4581664,42.9964289 L14.0533563,34.7774329 C13.9738547,34.3108884 13.5278233,33.9959208 13.0612794,34.0757596 Z M2.85261638,36.5813967 L13.1876181,34.8147834 C13.1938438,34.8140703 13.2000681,34.8133207 13.2062937,34.8133207 C13.2586441,34.8133207 13.305145,34.851046 13.3143319,34.9041466 L13.8163916,37.8414527 L11.3049029,36.6253477 C11.1393753,36.5451713 10.9412243,36.5964344 10.8353957,36.7462119 L8.67326447,39.8001071 L6.59607116,38.8757556 C6.45911915,38.8145918 6.29614212,38.8413298 6.18592747,38.9460691 L3.56940156,41.420168 L2.76362757,36.7073987 C2.75372919,36.6480724 2.79366537,36.5916715 2.85261638,36.5813967 Z M14.6297796,43.2483943 L4.29477501,45.015009 C4.23691177,45.0267465 4.17904815,44.9849707 4.16881054,44.9256451 L3.70939146,42.2386543 C3.77419245,42.2246666 3.83700569,42.1996165 3.88864399,42.1508282 L6.51953494,39.6627416 L8.64945125,40.6105309 C8.81205416,40.6819317 9.00469611,40.6302937 9.10797053,40.4845668 L11.2638775,37.4391089 L13.749377,38.6424643 C13.8174031,38.6750898 13.8888038,38.6788399 13.9580674,38.6702152 L14.7191407,43.1227678 C14.7290028,43.1817186 14.6891024,43.2381202 14.6297796,43.2483943 Z" transform="translate(0 -28)"/>
</svg>
