<svg xmlns="http://www.w3.org/2000/svg" width="24" height="25" viewBox="0 0 24 25">
  <path fill="#000000" d="M145.134762,9.44966756 C145.569341,9.0181578 145.722763,8.3848598 145.535262,7.79692356 C145.347715,7.20898733 144.858152,6.78855538 144.257589,6.69969407 L139.006178,5.9223844 C138.9031,5.9071524 138.81399,5.84121071 138.767865,5.74599876 L136.419379,0.898735955 C136.150831,0.344367427 135.606987,0 135.000096,0 C134.393205,0 133.84936,0.344367427 133.580813,0.898735955 L131.232327,5.7460465 C131.186155,5.84121071 131.097092,5.9071524 130.993967,5.92243215 L125.742649,6.69969407 C125.142086,6.78855538 124.65257,7.20898733 124.464976,7.79692356 C124.277382,8.3848598 124.430851,9.0181578 124.865477,9.44966756 L128.665402,13.2227637 C128.73998,13.2968705 128.774059,13.4035901 128.756434,13.5082086 L127.859386,18.8358764 C127.756823,19.4452043 127.998042,20.0493753 128.489011,20.4127469 C128.979981,20.776214 129.618794,20.8231515 130.155888,20.5355579 L134.852815,18.0201764 C134.945065,17.9707559 135.055174,17.9707559 135.147471,18.0201764 L139.844444,20.5355579 C140.07807,20.6606609 140.330867,20.7224961 140.582445,20.7224484 C140.909164,20.7224484 141.233821,20.6181641 141.51118,20.4126991 C142.00215,20.0492798 142.243415,19.445061 142.140806,18.8358287 L141.243758,13.5081609 C141.22618,13.4035423 141.260211,13.2968228 141.33479,13.222716 L145.134762,9.44966756 Z M139.995898,13.7262794 L140.892945,19.0540426 C140.922945,19.2323382 140.814898,19.3339963 140.767039,19.3693785 C140.719133,19.4047129 140.590789,19.4781035 140.433664,19.3938739 L135.73669,16.8784923 C135.506112,16.7550606 135.253174,16.6932731 135.00019,16.6932731 C134.747205,16.6932731 134.49422,16.7550606 134.263689,16.8784446 L129.566763,19.3937784 C129.409544,19.4779603 129.281247,19.4046652 129.233387,19.369283 C129.185528,19.3339008 129.077434,19.2322427 129.107481,19.0539471 L130.004529,13.7262794 C130.092607,13.2031866 129.922497,12.6697322 129.549325,12.2992459 L125.749399,8.52614976 C125.622227,8.39980531 125.651009,8.25288093 125.669337,8.19558186 C125.687571,8.13823504 125.749118,8.00210199 125.924853,7.97612641 L131.176123,7.19881674 C131.691702,7.12251348 132.137249,6.79285281 132.367875,6.31684077 L134.716361,1.46953022 C134.794971,1.30732609 134.941033,1.28980213 135.000237,1.28980213 C135.059346,1.28980213 135.205409,1.30727834 135.284065,1.46953022 L135.284065,1.46957797 L137.632552,6.31688852 C137.86313,6.79290056 138.30863,7.12256123 138.824209,7.19886449 L144.075573,7.97617416 C144.251308,8.00214974 144.312808,8.13828279 144.331089,8.19562961 C144.349371,8.25297643 144.378199,8.39994855 144.25098,8.52619751 L140.451054,12.2992937 C140.077929,12.6697322 139.907819,13.2031866 139.995898,13.7262794 Z M142.396087,0.89840171 C142.678978,1.10773432 142.74165,1.51107204 142.53615,1.79923863 L141.864103,2.74142638 C141.740259,2.91504257 141.547227,3.00724633 141.35143,3.00724633 C141.22243,3.00724633 141.092258,2.96718473 140.979805,2.88405332 C140.696914,2.67472071 140.634242,2.27138299 140.839742,1.98326415 L141.51179,1.0410764 C141.71729,0.752957564 142.11315,0.689069098 142.396087,0.89840171 Z M129.157497,1.97944421 C129.363044,2.2676108 129.300325,2.67094852 129.017481,2.88023339 C128.905168,2.96341254 128.774949,3.00347414 128.645902,3.00347414 C128.450058,3.00347414 128.257027,2.91131813 128.133136,2.73755869 L127.461089,1.79537094 C127.255588,1.50725211 127.318307,1.10391438 127.601151,0.894581772 C127.884089,0.685344658 128.279996,0.749233124 128.485449,1.03725646 L129.157497,1.97944421 Z M125.322743,14.4689231 C125.43079,14.8077038 125.248821,15.1715052 124.916289,15.2815672 L123.828929,15.6415009 C123.763913,15.6630358 123.69796,15.6733018 123.633132,15.6733018 C123.366272,15.6733018 123.118069,15.5000676 123.031162,15.2274673 C122.923115,14.888782 123.105038,14.5248852 123.437616,14.4148232 L124.524976,14.0548895 C124.857555,13.9448276 125.214696,14.1302378 125.322743,14.4689231 Z M135.000237,21.6292539 C135.349924,21.6292539 135.633331,21.9179458 135.633331,22.274155 L135.633331,23.4388542 C135.633331,23.7950156 135.349878,24.0837552 135.000237,24.0837552 C134.650596,24.0837552 134.367142,23.7950156 134.367142,23.4388542 L134.367142,22.274155 C134.367142,21.9179935 134.650596,21.6292539 135.000237,21.6292539 Z M146.562388,14.4157304 C146.89492,14.5257924 147.076889,14.8895938 146.968842,15.2283268 C146.881936,15.5008794 146.633732,15.6741613 146.366826,15.6741613 C146.301997,15.6741613 146.236091,15.663943 146.171075,15.6424558 L145.083715,15.2825222 C144.751137,15.1724602 144.569215,14.8086588 144.677262,14.4698781 C144.785309,14.1310973 145.14259,13.9458303 145.475028,14.0557968 L146.562388,14.4157304 Z" transform="translate(-123)"/>
</svg>
