<svg xmlns="http://www.w3.org/2000/svg" width="24" height="23" viewBox="0 0 24 23">
  <path fill="#000000" d="M97.3894691,75.668552 C97.598766,75.668552 97.7684067,75.4956999 97.7684067,75.2825475 L97.7684067,63.4447587 C97.7684067,62.5224353 98.5050944,61.7720089 99.4105321,61.7720089 L116.589474,61.7720089 C117.494958,61.7720089 118.231599,62.5224353 118.231599,63.4447587 L118.231599,64.4741358 C118.231599,64.6873359 118.401193,64.8601402 118.610537,64.8601402 C118.819881,64.8601402 118.989474,64.6872882 118.989474,64.4741358 L118.989474,63.4447587 C118.989474,62.0967512 117.912802,61 116.589474,61 L99.4105321,61 C98.0872036,61 97.0105315,62.0967512 97.0105315,63.4447587 L97.0105315,75.2825475 C97.0105315,75.4956999 97.1801722,75.668552 97.3894691,75.668552 Z M119.889053,66.64596 L118.878521,65.6165829 C118.730537,65.4658387 118.49063,65.4658387 118.342599,65.6165829 C118.194615,65.7672794 118.194615,66.0117075 118.342599,66.1624517 L118.706256,66.5328899 L116.158083,66.5328899 C115.992708,65.939463 115.455942,65.5035128 114.821114,65.5035128 C114.054989,65.5035128 113.431645,66.1384339 113.431645,66.9188944 C113.431645,67.2223883 113.525864,67.503822 113.686036,67.7344984 L110.220894,71.1038247 C110.014082,70.9791993 109.773003,70.907671 109.5158,70.907671 C108.880925,70.907671 108.344159,71.3436211 108.178831,71.9370481 L104.157986,71.9370481 C103.992658,71.3436211 103.455939,70.907671 102.821064,70.907671 C102.054892,70.907671 101.431595,71.542592 101.431595,72.3230525 C101.431595,72.5811847 101.499751,72.8232731 101.618673,73.0318416 L98.123438,76.2685683 C97.9103911,76.1329606 97.658766,76.0545564 97.3894691,76.0545564 C96.623297,76.0545564 96,76.6894775 96,77.469938 C96,78.2503986 96.623297,78.8853196 97.3894691,78.8853196 C98.1556412,78.8853196 98.7789382,78.2503986 98.7789382,77.469938 C98.7789382,77.2436068 98.7265319,77.029595 98.6334381,76.8396487 L102.164158,73.5700705 C102.359908,73.6775061 102.583595,73.7384819 102.821064,73.7384819 C103.455892,73.7384819 103.992658,73.3025317 104.157986,72.7091048 L108.178831,72.7091048 C108.344206,73.3025317 108.880972,73.7384819 109.5158,73.7384819 C110.281925,73.7384819 110.905269,73.1035608 110.905269,72.3231003 C110.905269,72.0845931 110.847004,71.8596466 110.7443,71.6622515 L114.281254,68.2231159 C114.447333,68.2946442 114.629723,68.334276 114.821067,68.334276 C115.455942,68.334276 115.992708,67.8983259 116.158036,67.3048989 L118.706209,67.3048989 L118.342552,67.6753371 C118.194568,67.8260336 118.194568,68.0704617 118.342552,68.2212059 C118.490537,68.3719501 118.730443,68.3719501 118.878474,68.2212059 L119.889006,67.1918288 C120.03699,67.0411323 120.03699,66.7967042 119.889053,66.64596 Z M97.3894691,78.1133106 C97.0411878,78.1133106 96.7578752,77.8246668 96.7578752,77.469938 C96.7578752,77.1152093 97.0411878,76.8265654 97.3894691,76.8265654 C97.7377504,76.8265654 98.021063,77.1151615 98.021063,77.469938 C98.021063,77.8247145 97.7377504,78.1133106 97.3894691,78.1133106 Z M103.452611,72.3231003 L103.452611,72.3264427 C103.450783,72.6796913 103.168174,72.9664729 102.821017,72.9664729 C102.472736,72.9664729 102.189423,72.6778768 102.189423,72.3231003 C102.189423,71.9683238 102.472736,71.6797277 102.821017,71.6797277 C103.168174,71.6797277 103.450783,71.9665093 103.452611,72.3197578 L103.452611,72.3231003 Z M109.5158,72.9664252 C109.167519,72.9664252 108.884206,72.6777813 108.884206,72.3230525 C108.884206,71.9683238 109.167519,71.6796799 109.5158,71.6796799 C109.864082,71.6796799 110.147394,71.968276 110.147394,72.3230525 C110.147394,72.677829 109.864082,72.9664252 109.5158,72.9664252 Z M114.821067,67.562267 C114.472786,67.562267 114.189473,67.2736232 114.189473,66.9188944 C114.189473,66.5641657 114.472786,66.2755218 114.821067,66.2755218 C115.169348,66.2755218 115.452661,66.5641179 115.452661,66.9188944 C115.452661,67.2736709 115.169348,67.562267 114.821067,67.562267 Z M118.610537,69.234969 C118.819881,69.234969 118.989474,69.4078211 118.989474,69.6209735 L118.989474,80.9440738 C118.989474,82.2920812 117.912802,83.3888324 116.589474,83.3888324 L99.4105321,83.3888324 C98.0872036,83.3888324 97.0105315,82.2920812 97.0105315,80.9440738 L97.0105315,79.9146967 C97.0105315,79.7015443 97.1801722,79.5286922 97.3894691,79.5286922 C97.5987191,79.5286922 97.7684067,79.7014965 97.7684067,79.9146967 L97.7684067,80.9440738 C97.7684067,81.8663972 98.5050944,82.6168235 99.4105321,82.6168235 L116.589474,82.6168235 C117.494958,82.6168235 118.231599,81.8663972 118.231599,80.9440738 L118.231599,69.6209735 C118.231599,69.4078211 118.401193,69.234969 118.610537,69.234969 Z" transform="translate(-96 -61)"/>
</svg>
