<svg xmlns="http://www.w3.org/2000/svg" width="24" height="23" viewBox="0 0 24 23">
  <path fill="#000000" d="M342,69.1219721 C342,69.110573 341.994527,69.1010365 341.99359,69.0899035 L341.99359,62.6300361 C341.99359,61.1797717 340.845027,60 339.433274,60 L320.560354,60 C319.148601,60 318,61.1797717 318,62.6300361 L318,80.1734491 C318,81.6237142 319.148601,82.8034857 320.560354,82.8034857 L339.433274,82.8034857 C340.845027,82.8034857 341.99359,81.6237142 341.99359,80.1734491 L341.99359,69.1540783 C341.994527,69.1429453 342,69.1334088 342,69.1219721 Z M322.497702,72.9120984 L318.755464,72.9120984 L318.755464,69.5113919 L322.497702,69.5113919 L322.497702,72.9120984 L322.497702,72.9120984 Z M322.497702,68.7325523 L318.755464,68.7325523 L318.755464,65.3318465 L322.497702,65.3318465 L322.497702,68.7325523 L322.497702,68.7325523 Z M318.755464,73.6909366 L322.497702,73.6909366 L322.497702,77.0916438 L318.755464,77.0916438 L318.755464,73.6909366 Z M323.253166,77.5131692 C323.254103,77.5020361 323.259575,77.4924989 323.259575,77.4810629 C323.259575,77.4696646 323.254103,77.4601274 323.253166,77.4489943 L323.253166,73.3336238 C323.254103,73.3224907 323.259575,73.3129535 323.259575,73.3015175 C323.259575,73.2901192 323.254103,73.2805819 323.253166,73.2694489 L323.253166,69.1540783 C323.254103,69.1429453 323.259575,69.1334088 323.259575,69.1219721 C323.259575,69.110573 323.254103,69.1010365 323.253166,69.0899035 L323.253166,64.9745329 C323.254103,64.9634003 323.259575,64.9538634 323.259575,64.9424267 C323.259575,64.9310276 323.254103,64.9214908 323.253166,64.9103581 L323.253166,60.7658829 L336.740424,60.7658829 L336.740424,64.9103579 C336.739525,64.9214906 336.734014,64.9310275 336.734014,64.9424265 C336.734014,64.9538632 336.739525,64.9634001 336.740424,64.9745328 L336.740424,69.0899034 C336.739525,69.1010364 336.734014,69.1105729 336.734014,69.121972 C336.734014,69.1334087 336.739525,69.1429452 336.740424,69.1540782 L336.740424,73.2694488 C336.739525,73.2805819 336.734014,73.2901191 336.734014,73.3015174 C336.734014,73.3129534 336.739525,73.3224906 336.740424,73.3336237 L336.740424,77.4489943 C336.739525,77.4601273 336.734014,77.4696645 336.734014,77.4810628 C336.734014,77.4924988 336.739525,77.5020361 336.740424,77.5131691 L336.740424,82.0376029 L323.253166,82.0376029 L323.253166,77.5131692 Z M337.495888,69.5113919 L341.238127,69.5113919 L341.238127,72.9120984 L337.495888,72.9120984 L337.495888,69.5113919 Z M337.495888,68.7325523 L337.495888,65.3318465 L341.238127,65.3318465 L341.238127,68.7325523 L337.495888,68.7325523 Z M337.495888,73.6909366 L341.238127,73.6909366 L341.238127,77.0916438 L337.495888,77.0916438 L337.495888,73.6909366 Z M341.238127,62.6300361 L341.238127,64.5530069 L337.495888,64.5530069 L337.495888,60.7658829 L339.433274,60.7658829 C340.428503,60.7658829 341.238127,61.6020198 341.238127,62.6300361 Z M320.560354,60.7658829 L322.497702,60.7658829 L322.497702,64.5530069 L318.755464,64.5530069 L318.755464,62.6300361 C318.755464,61.6020198 319.565131,60.7658829 320.560354,60.7658829 Z M318.755464,80.1734495 L318.755464,77.870482 L322.497702,77.870482 L322.497702,82.0376029 L320.560354,82.0376029 C319.565131,82.0376029 318.755464,81.2014283 318.755464,80.1734495 Z M339.433274,82.0376029 L337.495888,82.0376029 L337.495888,77.870482 L341.238127,77.870482 L341.238127,80.1734495 C341.238127,81.2014283 340.428503,82.0376029 339.433274,82.0376029 Z M333.90886,71.0692603 L327.911923,68.0295909 C327.798281,67.9722928 327.663575,67.9784101 327.555255,68.0459288 C327.447085,68.1136374 327.381387,68.2333246 327.381387,68.3620547 L327.381387,74.4413935 C327.381387,74.5701606 327.447085,74.6898109 327.555255,74.7575571 C327.614175,74.7944508 327.680966,74.813031 327.74795,74.813031 C327.803941,74.813031 327.860125,74.8000369 327.911923,74.7738573 L333.90886,71.734188 C334.032957,71.6711147 334.111481,71.542536 334.111481,71.4017241 C334.111481,71.2609115 334.032957,71.1323713 333.90886,71.0692603 Z M328.114544,73.8401087 L328.114544,68.9633772 L332.92518,71.4017241 L328.114544,73.8401087 Z" transform="translate(-318 -60)"/>
</svg>
