<svg xmlns="http://www.w3.org/2000/svg" width="517" height="518" viewBox="0 0 517 518">
  <path fill="#CAEBF2" fill-opacity=".25" d="M1695.08052,395.246037 C1704.42755,385.965007 1707.7274,372.34386 1703.69459,359.698366 C1699.66078,347.052873 1689.13112,338.010107 1676.21405,336.098854 L1563.26526,319.380265 C1561.04822,319.052651 1559.13163,317.634359 1558.13956,315.586514 L1507.62767,211.330259 C1501.85168,199.406749 1490.15453,192 1477.10135,192 C1464.04817,192 1452.35101,199.406749 1446.57503,211.330259 L1396.06313,315.587541 C1395.07006,317.634359 1393.15447,319.052651 1390.93643,319.381292 L1277.98965,336.098854 C1265.07258,338.010107 1254.54393,347.052873 1250.50911,359.698366 C1246.47429,372.34386 1249.77514,385.965007 1259.12318,395.246037 L1340.85302,476.398822 C1342.45707,477.992732 1343.19003,480.288084 1342.81095,482.538249 L1323.517,597.127186 C1321.31106,610.232777 1326.49926,623.227452 1337.05916,631.042948 C1347.61906,638.860498 1361.35883,639.870042 1372.9108,633.684401 L1473.93358,579.582886 C1475.91772,578.519937 1478.28598,578.519937 1480.27113,579.582886 L1581.29492,633.684401 C1586.3198,636.37515 1591.75703,637.705119 1597.16804,637.704092 C1604.1952,637.704092 1611.17801,635.461117 1617.14353,631.041921 C1627.70343,623.225398 1632.89265,610.229696 1630.68569,597.126159 L1611.39175,482.537222 C1611.01367,480.287057 1611.74562,477.991705 1613.34967,476.397795 L1695.08052,395.246037 Z M1584.55242,487.228574 L1603.84637,601.819565 C1604.49162,605.654395 1602.16771,607.840886 1601.13834,608.601895 C1600.10796,609.361878 1597.3475,610.940382 1593.96801,609.128748 L1492.94422,555.027233 C1487.98488,552.37243 1482.54463,551.043487 1477.10336,551.043487 C1471.6621,551.043487 1466.22084,552.37243 1461.26251,555.026206 L1360.23973,609.126694 C1356.85822,610.937301 1354.09877,609.360851 1353.0694,608.599841 C1352.04002,607.838832 1349.71511,605.652341 1350.36137,601.817511 L1369.65532,487.228574 C1371.54973,475.977751 1367.89097,464.504068 1359.86468,456.535549 L1278.13484,375.382763 C1275.39959,372.665312 1276.01862,369.505222 1276.41283,368.272818 C1276.80502,367.039387 1278.12879,364.1114 1281.90853,363.55271 L1394.8543,346.834121 C1405.94351,345.19297 1415.52646,338.102538 1420.48681,327.86434 L1470.99871,223.607058 C1472.68946,220.118327 1475.83101,219.741417 1477.10437,219.741417 C1478.37571,219.741417 1481.51727,220.1173 1483.20903,223.607058 L1483.20903,223.608085 L1533.72093,327.865367 C1538.68027,338.103565 1548.26221,345.193997 1559.35142,346.835148 L1672.2992,363.553737 C1676.07895,364.112427 1677.40171,367.040414 1677.79491,368.273845 C1678.18811,369.507276 1678.80815,372.668393 1676.07189,375.38379 L1594.34205,456.536576 C1586.31677,464.504068 1582.65801,475.977751 1584.55242,487.228574 Z M1636.17636,211.32307 C1642.26085,215.825453 1643.60882,224.500551 1639.18886,230.698517 L1624.73428,250.963349 C1622.07061,254.697534 1617.91884,256.680677 1613.70758,256.680677 C1610.93301,256.680677 1608.13324,255.819021 1605.71456,254.031008 C1599.63007,249.528625 1598.2821,240.853527 1602.70206,234.656588 L1617.15664,214.391756 C1621.5766,208.194817 1630.09086,206.820687 1636.17636,211.32307 Z M1351.43712,234.574428 C1355.85808,240.772394 1354.50911,249.447492 1348.42562,253.948848 C1346.00997,255.737888 1343.20919,256.599544 1340.43361,256.599544 C1336.22135,256.599544 1332.06957,254.617427 1329.4049,250.880162 L1314.95031,230.61533 C1310.53036,224.418391 1311.87933,215.743293 1317.96282,211.24091 C1324.04832,206.740581 1332.56359,208.114711 1336.98254,214.309596 L1351.43712,234.574428 Z M1268.95819,503.201558 C1271.28209,510.488148 1267.36825,518.312887 1260.21607,520.68013 L1236.82883,528.421682 C1235.43045,528.884861 1234.01191,529.105666 1232.61757,529.105666 C1226.87788,529.105666 1221.53946,525.379698 1219.67025,519.516535 C1217.34635,512.232 1221.25918,504.405206 1228.41236,502.037963 L1251.79961,494.296411 C1258.9528,491.929168 1266.63428,495.917023 1268.95819,503.201558 Z M1477.10437,657.207915 C1484.62555,657.207915 1490.72114,663.417178 1490.72114,671.078623 L1490.72114,696.129291 C1490.72114,703.78971 1484.62455,710 1477.10437,710 C1469.5842,710 1463.48761,703.78971 1463.48761,696.129291 L1463.48761,671.078623 C1463.48761,663.418205 1469.5842,657.207915 1477.10437,657.207915 Z M1725.7863,502.057477 C1732.93848,504.424719 1736.85232,512.249459 1734.52841,519.535021 C1732.65921,525.397157 1727.32078,529.124152 1721.58008,529.124152 C1720.18574,529.124152 1718.76821,528.904374 1717.36983,528.442222 L1693.98259,520.70067 C1686.8294,518.333427 1682.91657,510.508688 1685.24048,503.222098 C1687.56438,495.935509 1695.24889,491.950736 1702.39905,494.315925 L1725.7863,502.057477 Z" transform="translate(-1219 -192)" opacity=".1"/>
</svg>
