<svg xmlns="http://www.w3.org/2000/svg" width="17" height="23">
  <path fill-opacity=".75" fill-rule="evenodd" stroke="#000" stroke-opacity=".75" d="M9.426 2.676c-.194.307-.536.51-.926.51-.345 0-.652-.158-.853-.407l-4.46 1.91.002.07c0 .41-.23.77-.57.95v5.55c.27.15.47.41.54.722L7.73 14.1c.196-.19.465-.31.76-.31.604 0 1.094.49 1.094 1.095 0 .603-.49 1.092-1.094 1.092-.604 0-1.094-.49-1.094-1.093v-.027L3 12.83c-.196.295-.53.488-.91.488-.6 0-1.09-.486-1.09-1.09 0-.5.336-.923.796-1.053v-5.36C1.336 5.683 1 5.26 1 4.76c0-.604.49-1.093 1.094-1.093.28 0 .536.105.73.278L7.41 1.98C7.47 1.43 7.935 1 8.5 1c.514 0 .946.355 1.063.833l4.678 2.06c.19-.142.42-.226.67-.226.61 0 1.1.49 1.1 1.093 0 .604-.49 1.094-1.09 1.094-.604 0-1.094-.49-1.094-1.094 0-.05.005-.1.01-.15l-4.4-1.933zm-.053 6.477c-.2.264-.516.435-.873.435-.604 0-1.094-.49-1.094-1.094 0-.604.49-1.093 1.094-1.093.552 0 1.008.41 1.083.94l4.514 2.09c.2-.22.488-.35.81-.35.603 0 1.093.49 1.093 1.095 0 .44-.26.82-.633.993v5.484c.374.17.633.55.633.99 0 .603-.49 1.093-1.094 1.093-.292 0-.557-.116-.753-.3L9.59 21.38c-.04.566-.513 1.013-1.09 1.013-.58 0-1.054-.45-1.092-1.02l-4.52-1.99c-.198.21-.48.34-.794.34C1.49 19.72 1 19.23 1 18.626s.49-1.093 1.094-1.093c.598 0 1.084.48 1.094 1.074l4.482 1.97c.202-.233.5-.38.83-.38.334 0 .633.15.834.385l4.478-1.915v-.042c0-.474.303-.88.728-1.03v-5.4c-.412-.147-.71-.53-.728-.99l-4.44-2.05z"/>
</svg>
