<?xml version="1.0" encoding="UTF-8" standalone="no"?>
<svg width="104px" height="18px" viewBox="0 0 104 18" version="1.1" xmlns="http://www.w3.org/2000/svg" xmlns:xlink="http://www.w3.org/1999/xlink">
    <!-- Generator: Sketch 41.2 (35397) - http://www.bohemiancoding.com/sketch -->
    <title>powered_by_stripe</title>
    <desc>Created with Sketch.</desc>
    <defs></defs>
    <g id="Page-1" stroke="none" stroke-width="1" fill="none" fill-rule="evenodd" opacity="0.502">
        <g id="View-post---buttons" transform="translate(-119.000000, -195.000000)" fill="#424770">
            <g id="buy" transform="translate(104.000000, 101.000000)">
                <g id="powered_by_stripe" transform="translate(15.000000, 94.000000)">
                    <path d="M52.7,14.437 L51.395,14.437 L52.405,11.943 L50.395,6.871 L51.774,6.871 L53.037,10.323 L54.31,6.871 L55.689,6.871 L52.7,14.437 Z M47.69,12.259 C47.238,12.259 46.774,12.091 46.354,11.764 L46.354,12.133 L45.007,12.133 L45.007,4.566 L46.354,4.566 L46.354,7.229 C46.774,6.913 47.238,6.745 47.69,6.745 C49.1,6.745 50.068,7.881 50.068,9.502 C50.068,11.122 49.1,12.259 47.69,12.259 Z M47.406,7.902 C47.038,7.902 46.669,8.06 46.354,8.376 L46.354,10.628 C46.669,10.943 47.038,11.101 47.406,11.101 C48.164,11.101 48.69,10.449 48.69,9.502 C48.69,8.555 48.164,7.902 47.406,7.902 Z M39.554,11.764 C39.144,12.091 38.681,12.259 38.218,12.259 C36.818,12.259 35.84,11.122 35.84,9.502 C35.84,7.881 36.818,6.745 38.218,6.745 C38.681,6.745 39.144,6.913 39.554,7.229 L39.554,4.566 L40.912,4.566 L40.912,12.133 L39.554,12.133 L39.554,11.764 Z M39.554,8.376 C39.249,8.06 38.881,7.902 38.513,7.902 C37.744,7.902 37.218,8.555 37.218,9.502 C37.218,10.449 37.744,11.101 38.513,11.101 C38.881,11.101 39.249,10.943 39.554,10.628 L39.554,8.376 Z M31.535,9.87 C31.619,10.67 32.251,11.217 33.134,11.217 C33.619,11.217 34.155,11.038 34.702,10.722 L34.702,11.849 C34.103,12.122 33.503,12.259 32.913,12.259 C31.324,12.259 30.209,11.101 30.209,9.46 C30.209,7.871 31.303,6.745 32.808,6.745 C34.187,6.745 35.123,7.829 35.123,9.375 C35.123,9.523 35.123,9.691 35.102,9.87 L31.535,9.87 Z M32.756,7.786 C32.103,7.786 31.598,8.271 31.535,8.997 L33.829,8.997 C33.787,8.281 33.356,7.786 32.756,7.786 Z M27.988,8.618 L27.988,12.133 L26.641,12.133 L26.641,6.871 L27.988,6.871 L27.988,7.397 C28.367,6.976 28.83,6.745 29.282,6.745 C29.43,6.745 29.577,6.755 29.724,6.797 L29.724,7.997 C29.577,7.955 29.409,7.934 29.251,7.934 C28.809,7.934 28.335,8.176 27.988,8.618 Z M21.979,9.87 C22.063,10.67 22.694,11.217 23.578,11.217 C24.062,11.217 24.599,11.038 25.146,10.722 L25.146,11.849 C24.546,12.122 23.946,12.259 23.357,12.259 C21.768,12.259 20.653,11.101 20.653,9.46 C20.653,7.871 21.747,6.745 23.252,6.745 C24.63,6.745 25.567,7.829 25.567,9.375 C25.567,9.523 25.567,9.691 25.546,9.87 L21.979,9.87 Z M23.199,7.786 C22.547,7.786 22.042,8.271 21.979,8.997 L24.273,8.997 C24.231,8.281 23.799,7.786 23.199,7.786 Z M17.274,12.133 L16.2,8.555 L15.137,12.133 L13.927,12.133 L12.117,6.871 L13.464,6.871 L14.527,10.449 L15.59,6.871 L16.81,6.871 L17.873,10.449 L18.936,6.871 L20.283,6.871 L18.484,12.133 L17.274,12.133 Z M9.043,12.259 C7.454,12.259 6.328,11.112 6.328,9.502 C6.328,7.881 7.454,6.745 9.043,6.745 C10.632,6.745 11.748,7.881 11.748,9.502 C11.748,11.112 10.632,12.259 9.043,12.259 Z M9.043,7.871 C8.254,7.871 7.707,8.534 7.707,9.502 C7.707,10.47 8.254,11.133 9.043,11.133 C9.822,11.133 10.369,10.47 10.369,9.502 C10.369,8.534 9.822,7.871 9.043,7.871 Z M3.128,9.533 L1.918,9.533 L1.918,12.133 L0.571,12.133 L0.571,4.892 L3.128,4.892 C4.602,4.892 5.654,5.85 5.654,7.218 C5.654,8.586 4.602,9.533 3.128,9.533 Z M2.939,5.987 L1.918,5.987 L1.918,8.439 L2.939,8.439 C3.718,8.439 4.265,7.944 4.265,7.218 C4.265,6.482 3.718,5.987 2.939,5.987 Z" id="Shape"></path>
                    <path d="M103.116,10.051 L97.557,10.051 C97.684,11.382 98.659,11.774 99.766,11.774 C100.893,11.774 101.781,11.536 102.555,11.146 L102.555,13.433 C101.784,13.861 100.765,14.169 99.408,14.169 C96.642,14.169 94.704,12.437 94.704,9.013 C94.704,6.121 96.348,3.825 99.049,3.825 C101.746,3.825 103.154,6.12 103.154,9.028 C103.154,9.303 103.129,9.898 103.116,10.051 Z M99.031,6.14 C98.321,6.14 97.532,6.676 97.532,7.955 L100.468,7.955 C100.468,6.677 99.728,6.14 99.031,6.14 Z M90.108,14.169 C89.114,14.169 88.507,13.75 88.099,13.451 L88.093,16.664 L85.254,17.268 L85.253,4.014 L87.753,4.014 L87.901,4.715 C88.293,4.349 89.012,3.825 90.125,3.825 C92.119,3.825 93.997,5.621 93.997,8.927 C93.997,12.535 92.139,14.169 90.108,14.169 Z M89.446,6.34 C88.795,6.34 88.386,6.578 88.09,6.903 L88.107,11.122 C88.383,11.421 88.78,11.661 89.446,11.661 C90.496,11.661 91.2,10.518 91.2,8.989 C91.2,7.504 90.485,6.34 89.446,6.34 Z M81.149,4.014 L83.999,4.014 L83.999,13.966 L81.149,13.966 L81.149,4.014 Z M81.149,0.836 L83.999,0.23 L83.999,2.543 L81.149,3.149 L81.149,0.836 Z M78.11,7.219 L78.11,13.966 L75.272,13.966 L75.272,4.014 L77.727,4.014 L77.905,4.853 C78.57,3.631 79.897,3.879 80.275,4.015 L80.275,6.625 C79.914,6.508 78.781,6.338 78.11,7.219 Z M72.024,10.475 C72.024,12.148 73.816,11.627 74.179,11.482 L74.179,13.793 C73.801,14.001 73.115,14.169 72.187,14.169 C70.502,14.169 69.237,12.928 69.237,11.247 L69.25,2.138 L72.022,1.548 L72.024,4.014 L74.18,4.014 L74.18,6.435 L72.024,6.435 L72.024,10.475 Z M68.485,10.959 C68.485,13.003 66.858,14.169 64.497,14.169 C63.518,14.169 62.448,13.979 61.392,13.525 L61.392,10.814 C62.345,11.332 63.559,11.721 64.5,11.721 C65.133,11.721 65.589,11.551 65.589,11.026 C65.589,9.671 61.273,10.181 61.273,7.038 C61.273,5.028 62.808,3.825 65.111,3.825 C66.052,3.825 66.992,3.969 67.933,4.344 L67.933,7.019 C67.069,6.552 65.972,6.288 65.109,6.288 C64.514,6.288 64.144,6.46 64.144,6.903 C64.144,8.181 68.485,7.573 68.485,10.959 Z" id="Shape"></path>
                </g>
            </g>
        </g>
    </g>
</svg>