<svg xmlns="http://www.w3.org/2000/svg" width="553" height="550" viewBox="0 0 553 550">
  <defs>
    <linearGradient id="a" x1="90.28%" x2="42.15%" y1="27.87%" y2="56.269%">
      <stop stop-color="#F5D8D8" offset="0%"/>
      <stop stop-color="#DBA9A9" offset="100%"/>
    </linearGradient>
  </defs>
  <path fill="url(#a)" d="M438.931706,298.485404 C459.471111,298.485404 476.124609,281.84498 476.124609,261.314248 C476.124609,240.783516 459.471111,224.143092 438.931706,224.143092 C418.392302,224.143092 401.738804,240.783516 401.738804,261.314248 C401.738804,281.84498 418.392302,298.485404 438.931706,298.485404 Z M438.931706,487.5106 C459.471111,487.5106 476.124609,470.870176 476.124609,450.339444 C476.124609,429.808711 459.471111,413.168288 438.931706,413.168288 C418.392302,413.168288 401.738804,429.808711 401.738804,450.339444 C401.738804,470.870176 418.392302,487.5106 438.931706,487.5106 Z M114.633916,136.463807 C135.17332,136.463807 151.826819,119.823384 151.826819,99.2926513 C151.826819,78.7619191 135.17332,62.1214953 114.633916,62.1214953 C94.0945107,62.1214953 77.4410127,78.7619191 77.4410127,99.2926513 C77.4410127,119.823384 94.0945107,136.463807 114.633916,136.463807 Z M114.633916,325.489003 C135.17332,325.489003 151.826819,308.848579 151.826819,288.317847 C151.826819,267.787115 135.17332,251.146691 114.633916,251.146691 C94.0945107,251.146691 77.4410127,267.787115 77.4410127,288.317847 C77.4410127,308.848579 94.0945107,325.489003 114.633916,325.489003 Z M114.633916,487.5106 C135.17332,487.5106 151.826819,470.870176 151.826819,450.339444 C151.826819,429.808711 135.17332,413.168288 114.633916,413.168288 C94.0945107,413.168288 77.4410127,429.808711 77.4410127,450.339444 C77.4410127,470.870176 94.0945107,487.5106 114.633916,487.5106 Z M276.782811,555.019598 C297.322216,555.019598 313.975714,538.379174 313.975714,517.848442 C313.975714,497.31771 297.322216,480.677286 276.782811,480.677286 C256.243406,480.677286 239.589908,497.31771 239.589908,517.848442 C239.589908,538.379174 256.243406,555.019598 276.782811,555.019598 Z M276.782811,392.998002 C297.322216,392.998002 313.975714,376.357578 313.975714,355.826846 C313.975714,335.296114 297.322216,318.65569 276.782811,318.65569 C256.243406,318.65569 239.589908,335.296114 239.589908,355.826846 C239.589908,376.357578 256.243406,392.998002 276.782811,392.998002 Z M276.782811,230.976405 C297.322216,230.976405 313.975714,214.335981 313.975714,193.805249 C313.975714,173.274517 297.322216,156.634093 276.782811,156.634093 C256.243406,156.634093 239.589908,173.274517 239.589908,193.805249 C239.589908,214.335981 256.243406,230.976405 276.782811,230.976405 Z M438.931706,136.463807 C459.471111,136.463807 476.124609,119.823384 476.124609,99.2926513 C476.124609,78.7619191 459.471111,62.1214953 438.931706,62.1214953 C418.392302,62.1214953 401.738804,78.7619191 401.738804,99.2926513 C401.738804,119.823384 418.392302,136.463807 438.931706,136.463807 Z M276.782811,68.9548087 C297.322216,68.9548087 313.975714,52.314385 313.975714,31.7836527 C313.975714,11.2529205 297.322216,-5.38750324 276.782811,-5.38750324 C256.243406,-5.38750324 239.589908,11.2529205 239.589908,31.7836527 C239.589908,52.314385 256.243406,68.9548087 276.782811,68.9548087 Z M420.219082,277.01022 L420.186601,437.188431 L276.81511,498.608021 L116.936088,428.28763 L100.834696,464.808273 L276.535474,542.150473 L460.113094,463.531839 L460.113094,251.472586 L276.409491,166.593961 L259.645828,202.818768 L420.219082,277.01022 Z M280.894474,48.3913246 L440.785223,118.774065 L456.887762,82.2508215 L281.186984,4.90862153 L97.6093641,83.5272553 L97.6093641,295.586508 L281.312967,380.465133 L298.07663,344.240327 L137.552928,270.07177 L137.582122,109.825178 L280.894474,48.3913246 Z" transform="rotate(-50 276.783 274.816)" opacity=".15"/>
</svg>
