<?xml version="1.0" encoding="UTF-8"?>
<svg width="533px" height="484px" viewBox="0 0 533 484" version="1.1" xmlns="http://www.w3.org/2000/svg" xmlns:xlink="http://www.w3.org/1999/xlink">
    <!-- Generator: Sketch 42 (36781) - http://www.bohemiancoding.com/sketch -->
    <title>Combined Shape</title>
    <desc>Created with Sketch.</desc>
    <defs>
        <linearGradient x1="90.2802376%" y1="27.8696968%" x2="42.1496983%" y2="56.2685022%" id="linearGradient-1">
            <stop stop-color="#F5D8D8" offset="0%"></stop>
            <stop stop-color="#DBA9A9" offset="100%"></stop>
        </linearGradient>
    </defs>
    <g id="Registration-flow" stroke="none" stroke-width="1" fill="none" fill-rule="evenodd" opacity="0.150000006">
        <g id="User-registartion-flow" transform="translate(-2180.000000, -239.000000)" fill-rule="nonzero" fill="url(#linearGradient-1)">
            <g id="Group" transform="translate(2180.000000, 199.000000)">
                <g id="Combined-Shape" transform="translate(-7.000000, -18.000000)">
                    <g>
                        <path d="M440.931706,356.059077 C461.471111,356.059077 478.124609,339.418653 478.124609,318.887921 C478.124609,298.357188 461.471111,281.716765 440.931706,281.716765 C420.392302,281.716765 403.738804,298.357188 403.738804,318.887921 C403.738804,339.418653 420.392302,356.059077 440.931706,356.059077 Z M440.931706,545.084273 C461.471111,545.084273 478.124609,528.443849 478.124609,507.913117 C478.124609,487.382384 461.471111,470.741961 440.931706,470.741961 C420.392302,470.741961 403.738804,487.382384 403.738804,507.913117 C403.738804,528.443849 420.392302,545.084273 440.931706,545.084273 Z M116.633916,194.03748 C137.17332,194.03748 153.826819,177.397056 153.826819,156.866324 C153.826819,136.335592 137.17332,119.695168 116.633916,119.695168 C96.0945107,119.695168 79.4410127,136.335592 79.4410127,156.866324 C79.4410127,177.397056 96.0945107,194.03748 116.633916,194.03748 Z M116.633916,383.062676 C137.17332,383.062676 153.826819,366.422252 153.826819,345.89152 C153.826819,325.360788 137.17332,308.720364 116.633916,308.720364 C96.0945107,308.720364 79.4410127,325.360788 79.4410127,345.89152 C79.4410127,366.422252 96.0945107,383.062676 116.633916,383.062676 Z M116.633916,545.084273 C137.17332,545.084273 153.826819,528.443849 153.826819,507.913117 C153.826819,487.382384 137.17332,470.741961 116.633916,470.741961 C96.0945107,470.741961 79.4410127,487.382384 79.4410127,507.913117 C79.4410127,528.443849 96.0945107,545.084273 116.633916,545.084273 Z M278.782811,612.593271 C299.322216,612.593271 315.975714,595.952847 315.975714,575.422115 C315.975714,554.891383 299.322216,538.250959 278.782811,538.250959 C258.243406,538.250959 241.589908,554.891383 241.589908,575.422115 C241.589908,595.952847 258.243406,612.593271 278.782811,612.593271 Z M278.782811,450.571675 C299.322216,450.571675 315.975714,433.931251 315.975714,413.400519 C315.975714,392.869786 299.322216,376.229363 278.782811,376.229363 C258.243406,376.229363 241.589908,392.869786 241.589908,413.400519 C241.589908,433.931251 258.243406,450.571675 278.782811,450.571675 Z M278.782811,288.550078 C299.322216,288.550078 315.975714,271.909654 315.975714,251.378922 C315.975714,230.84819 299.322216,214.207766 278.782811,214.207766 C258.243406,214.207766 241.589908,230.84819 241.589908,251.378922 C241.589908,271.909654 258.243406,288.550078 278.782811,288.550078 Z M440.931706,194.03748 C461.471111,194.03748 478.124609,177.397056 478.124609,156.866324 C478.124609,136.335592 461.471111,119.695168 440.931706,119.695168 C420.392302,119.695168 403.738804,136.335592 403.738804,156.866324 C403.738804,177.397056 420.392302,194.03748 440.931706,194.03748 Z M278.782811,126.528482 C299.322216,126.528482 315.975714,109.888058 315.975714,89.3573256 C315.975714,68.8265933 299.322216,52.1861696 278.782811,52.1861696 C258.243406,52.1861696 241.589908,68.8265933 241.589908,89.3573256 C241.589908,109.888058 258.243406,126.528482 278.782811,126.528482 Z M422.219082,334.583892 L422.186601,494.762104 L278.81511,556.181693 L118.936088,485.861303 L102.834696,522.381946 L278.535474,599.724146 L462.113094,521.105512 L462.113094,309.046259 L278.409491,224.167634 L261.645828,260.392441 L422.219082,334.583892 Z M282.894474,105.964997 L442.785223,176.347738 L458.887762,139.824494 L283.186984,62.4822943 L99.6093641,141.100928 L99.6093641,353.160181 L283.312967,438.038806 L300.07663,401.813999 L139.552928,327.645443 L139.582122,167.398851 L282.894474,105.964997 Z" transform="translate(278.782811, 332.389720) rotate(-50.000000) translate(-278.782811, -332.389720) "></path>
                    </g>
                </g>
            </g>
        </g>
    </g>
</svg>