<svg xmlns="http://www.w3.org/2000/svg" width="1em" height="1em" viewBox="0 0 32 32">
  <path fill="currentColor" fill-rule="nonzero" d="M21.5484281,5.33839314 C21.1124802,4.88720229 20.3869165,4.88720229 19.9357256,5.33839314 C19.4997777,5.77434106 19.4997777,6.49990473 19.9357256,6.93483646 L28.1130518,15.1121626 L1.12899333,15.1121626 C0.499968244,15.1131788 0,15.613147 0,16.2421721 C0,16.8711972 0.499968244,17.3874246 1.12899333,17.3874246 L28.1130518,17.3874246 L19.9357256,25.5495078 C19.4997777,26.0006986 19.4997777,26.7272785 19.9357256,27.1622102 C20.3869165,27.6134011 21.1134963,27.6134011 21.5484281,27.1622102 L31.6616069,17.0490314 C32.1127977,16.6130835 32.1127977,15.8875198 31.6616069,15.4525881 L21.5484281,5.33839314 Z" transform="matrix(0 -1 -1 0 32.25 32.25)"/>
</svg>
