<svg xmlns="http://www.w3.org/2000/svg" viewBox="0 0 32 32">
  <path fill="currentColor" fill-rule="nonzero" d="M22.9333125,29.8666875 L8,29.8666875 C7.705625,29.8666875 7.4666875,30.105625 7.4666875,30.4 L7.4666875,31.4666875 C7.4666875,31.7610625 7.705625,32 8,32 C8.294375,32 8.5333125,31.7610625 8.5333125,31.4666875 L8.5333125,30.933375 L22.9333125,30.933375 C23.2276875,30.933375 23.466625,30.6944375 23.466625,30.4000625 C23.466625,30.1056875 23.22775,29.8666875 22.9333125,29.8666875 Z M11.7333125,13.3333125 C11.7333125,13.6276875 11.97225,13.866625 12.266625,13.866625 L14.4,13.866625 C14.694375,13.866625 14.9333125,13.6276875 14.9333125,13.3333125 L14.9333125,10.1333125 C14.9333125,9.8389375 14.694375,9.6 14.4,9.6 L12.2666875,9.6 C11.9723125,9.6 11.733375,9.8389375 11.733375,10.1333125 L11.733375,13.3333125 L11.7333125,13.3333125 Z M12.8,10.6666875 L13.8666875,10.6666875 L13.8666875,12.8 L12.8,12.8 L12.8,10.6666875 Z M6.9333125,6.4 L0.5333125,6.4 C0.2389375,6.4 0,6.6389375 0,6.9333125 L0,17.6 C0,17.894375 0.2389375,18.1333125 0.5333125,18.1333125 C0.8276875,18.1333125 1.066625,17.894375 1.066625,17.6 L1.066625,7.4666875 L6.9333125,7.4666875 C7.2276875,7.4666875 7.466625,7.22775 7.466625,6.933375 C7.466625,6.639 7.22775,6.4 6.9333125,6.4 Z M25.6,26.1333125 C25.6,26.4276875 25.8389375,26.666625 26.1333125,26.666625 L28.266625,26.666625 C28.561,26.666625 28.7999375,26.4276875 28.7999375,26.1333125 L28.7999375,22.9333125 C28.7999375,22.6389375 28.561,22.4 28.266625,22.4 L26.1333125,22.4 C25.8389375,22.4 25.6,22.6389375 25.6,22.9333125 L25.6,26.1333125 Z M26.6666875,23.4666875 L27.733375,23.4666875 L27.733375,25.6 L26.6666875,25.6 L26.6666875,23.4666875 Z M2.6666875,19.2 C0.030375,19.2 0,26.064 0,26.1333125 C0,27.4213125 0.917875,28.498125 2.1333125,28.746125 L2.1333125,31.4666875 C2.1333125,31.7610625 2.37225,32 2.666625,32 C2.961,32 3.1999375,31.7610625 3.1999375,31.4666875 L3.1999375,28.746125 C4.415375,28.498125 5.33325,27.4213125 5.33325,26.1333125 C5.3333125,26.064 5.3029375,19.2 2.6666875,19.2 Z M2.6666875,27.7333125 C1.7845625,27.7333125 1.0666875,27.0154375 1.0666875,26.1333125 C1.0666875,23.47625 1.7803125,20.266625 2.6666875,20.266625 C3.5530625,20.266625 4.2666875,23.47625 4.2666875,26.1333125 C4.2666875,27.0154375 3.5488125,27.7333125 2.6666875,27.7333125 Z M5.8666875,16 L3.7333125,16 C3.4389375,16 3.2,16.2389375 3.2,16.5333125 L3.2,17.6 C3.2,17.894375 3.4389375,18.1333125 3.7333125,18.1333125 C4.0276875,18.1333125 4.266625,17.894375 4.266625,17.6 L4.266625,17.0666875 L5.3333125,17.0666875 L5.3333125,19.733375 C5.3333125,20.02775 5.57225,20.2666875 5.866625,20.2666875 C6.161,20.2666875 6.3999375,20.02775 6.3999375,19.733375 L6.3999375,16.533375 C6.4,16.2389375 6.1610625,16 5.8666875,16 Z M26.1333125,13.8666875 L28.266625,13.8666875 C28.561,13.8666875 28.7999375,13.62775 28.7999375,13.333375 L28.7999375,10.133375 C28.7999375,9.839 28.561,9.6000625 28.266625,9.6000625 L26.1333125,9.6000625 C25.8389375,9.6000625 25.6,9.839 25.6,10.133375 L25.6,13.333375 C25.6,13.62775 25.8389375,13.8666875 26.1333125,13.8666875 Z M26.6666875,10.6666875 L27.733375,10.6666875 L27.733375,12.8 L26.6666875,12.8 L26.6666875,10.6666875 Z M5.8666875,9.6 L3.7333125,9.6 C3.4389375,9.6 3.2,9.8389375 3.2,10.1333125 L3.2,13.3333125 C3.2,13.6276875 3.4389375,13.866625 3.7333125,13.866625 L5.866625,13.866625 C6.161,13.866625 6.3999375,13.6276875 6.3999375,13.3333125 L6.3999375,10.1333125 C6.4,9.8389375 6.1610625,9.6 5.8666875,9.6 Z M5.3333125,12.8 L4.2666875,12.8 L4.2666875,10.6666875 L5.333375,10.6666875 L5.333375,12.8 L5.3333125,12.8 Z M17.0666875,13.3333125 C17.0666875,13.6276875 17.305625,13.866625 17.6,13.866625 L19.7333125,13.866625 C20.0276875,13.866625 20.266625,13.6276875 20.266625,13.3333125 L20.266625,10.1333125 C20.266625,9.8389375 20.0276875,9.6 19.7333125,9.6 L17.6,9.6 C17.305625,9.6 17.0666875,9.8389375 17.0666875,10.1333125 L17.0666875,13.3333125 Z M18.1333125,10.6666875 L19.2,10.6666875 L19.2,12.8 L18.1333125,12.8 L18.1333125,10.6666875 Z M31.4666875,6.4 L25.0666875,6.4 C24.7723125,6.4 24.533375,6.6389375 24.533375,6.9333125 C24.533375,7.2276875 24.7723125,7.466625 25.0666875,7.466625 L30.933375,7.466625 L30.933375,28.898125 C30.7659375,28.838375 30.5883125,28.8 30.4000625,28.8 C30.3078125,28.8 30.2160625,28.808 30.1259375,28.824 C29.7579375,28.1610625 29.0576875,27.7333125 28.26675,27.7333125 C27.4758125,27.7333125 26.7755625,28.1610625 26.4075625,28.824 C26.3174375,28.808 26.2256875,28.8 26.1334375,28.8 C25.2513125,28.8 24.5334375,29.517875 24.5334375,30.4 C24.5334375,31.282125 25.2513125,32 26.1334375,32 L30.4,32 C31.282125,32 32,31.282125 32,30.4 L32,6.9333125 C32,6.6389375 31.7610625,6.4 31.4666875,6.4 Z M30.4,30.9333125 L26.1333125,30.9333125 C25.8394375,30.9333125 25.6,30.693875 25.6,30.4 C25.6,30.106125 25.8394375,29.8666875 26.1333125,29.8666875 C26.2356875,29.8666875 26.33275,29.896 26.422375,29.953625 C26.5685,30.0475 26.7509375,30.0645625 26.912,29.9995 C27.0730625,29.9344375 27.192,29.7946875 27.2309375,29.625625 C27.3435,29.13975 27.769625,28.8 28.2666875,28.8 C28.76375,28.8 29.189875,29.13975 29.3024375,29.625625 C29.341375,29.7946875 29.4603125,29.9344375 29.621375,29.9995 C29.7819375,30.0645625 29.9648125,30.0475 30.111,29.953625 C30.4581875,29.729625 30.933375,30.00375 30.933375,30.4 C30.9333125,30.693875 30.693875,30.9333125 30.4,30.9333125 Z M17.6,7.4666875 L19.7333125,7.4666875 C20.0276875,7.4666875 20.266625,7.22775 20.266625,6.933375 L20.266625,3.733375 C20.266625,3.439 20.0276875,3.2000625 19.7333125,3.2000625 L17.6,3.2000625 C17.305625,3.2000625 17.0666875,3.439 17.0666875,3.733375 L17.0666875,6.933375 C17.0666875,7.22775 17.305625,7.4666875 17.6,7.4666875 Z M18.1333125,4.2666875 L19.2,4.2666875 L19.2,6.4 L18.1333125,6.4 L18.1333125,4.2666875 Z M17.0666875,19.7333125 C17.0666875,20.0276875 17.305625,20.266625 17.6,20.266625 L19.7333125,20.266625 C20.0276875,20.266625 20.266625,20.0276875 20.266625,19.7333125 L20.266625,16.5333125 C20.266625,16.2389375 20.0276875,16 19.7333125,16 L17.6,16 C17.305625,16 17.0666875,16.2389375 17.0666875,16.5333125 L17.0666875,19.7333125 Z M18.1333125,17.0666875 L19.2,17.0666875 L19.2,19.2 L18.1333125,19.2 L18.1333125,17.0666875 Z M12.2666875,7.4666875 L14.4,7.4666875 C14.694375,7.4666875 14.9333125,7.22775 14.9333125,6.933375 L14.9333125,3.733375 C14.9333125,3.439 14.694375,3.2000625 14.4,3.2000625 L12.2666875,3.2000625 C11.9723125,3.2000625 11.733375,3.439 11.733375,3.733375 L11.733375,6.933375 C11.7333125,7.22775 11.97225,7.4666875 12.2666875,7.4666875 Z M12.8,4.2666875 L13.8666875,4.2666875 L13.8666875,6.4 L12.8,6.4 L12.8,4.2666875 Z M15.6213125,25.7546875 C15.5253125,25.856 15.466625,25.9946875 15.466625,26.133375 C15.466625,26.2720625 15.5253125,26.4106875 15.6213125,26.5120625 C15.722625,26.6080625 15.8613125,26.66675 16,26.66675 C16.1386875,26.66675 16.2773125,26.6080625 16.3786875,26.5120625 C16.4746875,26.41075 16.533375,26.2720625 16.533375,26.133375 C16.533375,25.9946875 16.4746875,25.8560625 16.3786875,25.7546875 C16.176,25.5573125 15.824,25.5573125 15.6213125,25.7546875 Z M11.7333125,19.7333125 C11.7333125,20.0276875 11.97225,20.266625 12.266625,20.266625 L14.4,20.266625 C14.694375,20.266625 14.9333125,20.0276875 14.9333125,19.7333125 L14.9333125,16.5333125 C14.9333125,16.2389375 14.694375,16 14.4,16 L12.2666875,16 C11.9723125,16 11.733375,16.2389375 11.733375,16.5333125 L11.733375,19.7333125 L11.7333125,19.7333125 Z M12.8,17.0666875 L13.8666875,17.0666875 L13.8666875,19.2 L12.8,19.2 L12.8,17.0666875 Z M10.6666875,22.9333125 C10.6666875,23.2276875 10.905625,23.466625 11.2,23.466625 L12.8,23.466625 L12.8,28.266625 C12.8,28.561 13.0389375,28.7999375 13.3333125,28.7999375 C13.6276875,28.7999375 13.866625,28.561 13.866625,28.266625 L13.866625,23.466625 L18.1333125,23.466625 L18.1333125,28.266625 C18.1333125,28.561 18.37225,28.7999375 18.666625,28.7999375 C18.961,28.7999375 19.1999375,28.561 19.1999375,28.266625 L19.1999375,23.466625 L20.7999375,23.466625 C21.0943125,23.466625 21.33325,23.2276875 21.33325,22.9333125 C21.33325,22.6389375 21.0943125,22.4 20.7999375,22.4 L11.2,22.4 C10.905625,22.4 10.6666875,22.6389375 10.6666875,22.9333125 Z M25.6,19.7333125 C25.6,20.0276875 25.8389375,20.266625 26.1333125,20.266625 L28.266625,20.266625 C28.561,20.266625 28.7999375,20.0276875 28.7999375,19.7333125 L28.7999375,16.5333125 C28.7999375,16.2389375 28.561,16 28.266625,16 L26.1333125,16 C25.8389375,16 25.6,16.2389375 25.6,16.5333125 L25.6,19.7333125 Z M26.6666875,17.0666875 L27.733375,17.0666875 L27.733375,19.2 L26.6666875,19.2 L26.6666875,17.0666875 Z M22.9333125,-1.77635684e-15 L9.0666875,-1.77635684e-15 C8.7723125,-1.77635684e-15 8.533375,0.2389375 8.533375,0.5333125 L8.533375,28.266625 C8.533375,28.561 8.7723125,28.7999375 9.0666875,28.7999375 C9.3610625,28.7999375 9.6,28.561 9.6,28.266625 L9.6,1.066625 L22.4,1.066625 L22.4,28.266625 C22.4,28.561 22.6389375,28.7999375 22.9333125,28.7999375 C23.2276875,28.7999375 23.466625,28.561 23.466625,28.266625 L23.466625,0.5333125 C23.4666875,0.2389375 23.22775,-1.77635684e-15 22.9333125,-1.77635684e-15 Z"/>
</svg>
