<svg xmlns="http://www.w3.org/2000/svg" viewBox="0 0 32 32">
  <path fill="currentColor" fill-rule="nonzero" d="M18.2177923,20.1742591 C18.2645866,20.1742591 18.3122933,20.1665658 18.360391,20.151113 L24.5208798,18.1014549 C24.760391,18.0218694 24.8915845,17.7582425 24.8135071,17.5138487 C24.7522444,17.3218487 24.5773198,17.1927876 24.3782811,17.1927876 C24.330053,17.1927876 24.2820855,17.2005472 24.2358126,17.2159337 L18.07578,19.2654591 C17.9593157,19.3039917 17.8647495,19.3862964 17.8094175,19.4972518 C17.7540204,19.6082073 17.7445703,19.7345492 17.7826314,19.8526674 C17.8436334,20.0450653 18.0184277,20.1742591 18.2177923,20.1742591 Z M18.2177923,21.7862632 C18.2648473,21.7862632 18.312554,21.7785036 18.3602607,21.7630508 L21.441776,20.7383876 C21.6810265,20.6583378 21.8123503,20.3947772 21.7345336,20.1506487 C21.6727495,19.9585161 21.4978248,19.8295212 21.2994379,19.8295212 C21.2511446,19.8295212 21.2031772,19.8373472 21.1569043,19.8527337 L18.0759104,20.8773969 C17.9593809,20.9159959 17.8647495,20.9983005 17.8094175,21.1091896 C17.7540204,21.2201451 17.7445703,21.346487 17.7826314,21.4646052 C17.8436334,21.6569368 18.0184277,21.7862632 18.2177923,21.7862632 Z M26.7672016,18.187142 L26.7672016,14.6681368 C26.7672016,14.519113 26.6964888,14.3780477 26.5779389,14.2907026 C26.4595193,14.2037554 26.3044725,14.1791503 26.1663707,14.2253098 L24.9946884,14.6150798 C23.732611,13.1431461 21.9981589,12.2630632 20.0904114,12.123457 C20.5857923,11.7087503 21.01978,11.2244062 21.3823381,10.6814342 C21.4821833,10.7008 21.5840489,10.7105492 21.6855886,10.7105492 C22.5691405,10.7105492 23.2878697,9.97889326 23.2878697,9.07951088 C23.2878697,8.50085803 22.9856619,7.96584456 22.496277,7.67237306 C22.5304277,7.39587979 22.5478289,7.11381554 22.5478289,6.83321036 C22.5478289,3.06530155 19.5355927,0 15.8331731,0 C12.1312098,0 9.11949491,3.06536788 9.11949491,6.83321036 C9.11949491,7.11010155 9.13676578,7.3921658 9.17072098,7.67210777 C8.6812057,7.96557927 8.37899796,8.50065907 8.37899796,9.07951088 C8.37899796,9.97889326 9.09805295,10.7105492 9.98193075,10.7105492 C10.0826884,10.7105492 10.1839674,10.7007337 10.283943,10.6814342 C10.6534094,11.2335585 11.0949572,11.7240041 11.5984847,12.1417617 C9.68076578,12.2672415 7.93367006,13.1392995 6.65875356,14.6109679 L5.49964969,14.2253762 C5.36148269,14.1790839 5.20689206,14.2036228 5.08827699,14.2909016 C4.97011813,14.3784456 4.89953564,14.5195109 4.89953564,14.6681368 L4.89953564,18.187142 C3.82939308,18.2683855 3,19.1720788 3,20.271685 L3,21.1865202 C3,22.2867233 3.8293279,23.1908145 4.89953564,23.2717264 L4.89953564,28.048713 C4.89953564,28.2505948 5.02616701,28.428601 5.21484318,28.4917389 L15.690444,31.9771192 L15.6960489,31.9787772 C15.7167088,31.9854093 15.7360652,31.9901181 15.7569206,31.9935668 L15.7689124,31.9952912 C15.7901589,31.9980104 15.8111446,32 15.8331731,32 C15.8549409,32 15.8752098,31.9980104 15.8966517,31.9953575 L15.9102077,31.9934342 C15.9303462,31.9899192 15.9495071,31.9852767 15.970167,31.9787772 L26.4510468,28.4916725 C26.6401792,28.428601 26.7672668,28.2505285 26.7672668,28.048713 L26.7672668,23.2716601 C27.837279,23.1901513 28.6664766,22.2861927 28.6664766,21.1865202 L28.6664766,20.271685 C28.6664114,19.1724767 27.8372138,18.2687171 26.7672016,18.187142 Z M5.81515275,23.2716601 C6.88536049,23.190085 7.71468839,22.2861264 7.71468839,21.1865202 L7.71468839,20.271685 C7.71468839,19.1726093 6.88529532,18.2688497 5.81515275,18.187142 L5.81515275,15.310458 L15.3746151,18.4915565 L15.3746151,30.891772 L5.81515275,27.7108062 L5.81515275,23.2716601 L5.81515275,23.2716601 Z M6.79874542,20.271685 L6.79874542,21.1865202 C6.79874542,21.8261886 6.28746232,22.3465451 5.65899796,22.3465451 L5.05484318,22.3465451 C4.42650916,22.3465451 3.91535642,21.8261223 3.91535642,21.1865202 L3.91535642,20.271685 C3.91535642,19.6327461 4.42657434,19.1129865 5.05484318,19.1129865 L5.65899796,19.1129865 C6.28746232,19.1129865 6.79874542,19.6327461 6.79874542,20.271685 Z M15.3240407,0.954031088 C15.3470468,1.1682487 15.3586477,1.38465492 15.3586477,1.59827565 C15.3586477,4.64069637 13.0411568,7.21024663 10.0711527,7.47639378 C10.0470387,7.25501347 10.0347862,7.03893886 10.0347862,6.83321036 C10.0348513,3.78820311 12.3529939,1.21812228 15.3240407,0.954031088 Z M13.4714297,14.5059813 L13.1331161,13.096058 C13.6382729,13.3208207 14.1703462,13.4809202 14.7186477,13.5731731 L13.4714297,14.5059813 Z M16.947112,13.5733057 C17.4948921,13.4811192 18.0273564,13.321086 18.533556,13.0965223 L18.1941996,14.5060477 L16.947112,13.5733057 Z M12.0711202,13.0572601 L12.181002,13.0572601 L12.744945,15.405629 C12.7815723,15.5570404 12.8893686,15.6793368 13.0336619,15.7327254 C13.1802363,15.7862466 13.3385418,15.7614425 13.4608717,15.6704497 L15.8333035,13.8960249 L18.2053442,15.6704497 C18.3268269,15.7611772 18.4891079,15.7857824 18.6324236,15.7326591 C18.7767169,15.6792041 18.8843829,15.5569741 18.920554,15.405629 L19.4904929,13.0352415 L19.5619878,13.0352415 C21.2620285,13.0352415 22.8470387,13.7085347 24.0372301,14.9337534 L15.8331731,17.6636684 L7.6191446,14.9302383 C8.8065336,13.7215337 10.3833971,13.0572601 12.0711202,13.0572601 Z M21.6855886,9.77893472 C21.5794216,9.77893472 21.4789898,9.7557886 21.3871609,9.71022591 C21.3240081,9.67892228 21.256554,9.6630715 21.1867536,9.6630715 C21.0253849,9.6630715 20.8789409,9.7470342 20.7949328,9.88770155 C19.7343707,11.6702176 17.8795438,12.7344083 15.8331731,12.7344083 C13.7886273,12.7344083 11.9334094,11.6701513 10.8706965,9.88756891 C10.7870794,9.7470342 10.6407006,9.6630715 10.4790061,9.6630715 C10.408554,9.6630715 10.3410346,9.67912124 10.2784684,9.71055751 C10.188334,9.75532435 10.0858167,9.77893472 9.98193075,9.77893472 C9.60301426,9.77893472 9.29468024,9.46516891 9.29468024,9.07951088 C9.29468024,8.7945285 9.46862729,8.53401865 9.72821181,8.42883316 C12.4358941,8.36038964 14.8663299,6.60247876 15.8334338,4.03266321 C16.7999511,6.60300933 19.2305825,8.36045596 21.9394379,8.42883316 C22.1983707,8.53454922 22.3716008,8.79466114 22.3716008,9.07951088 C22.3715356,9.46510259 22.0637882,9.77893472 21.6855886,9.77893472 Z M21.5957149,7.4764601 C18.6253849,7.21090984 16.3076334,4.64122694 16.3076334,1.59827565 C16.3076334,1.38943005 16.3191039,1.17302383 16.3417841,0.954097409 C19.3138737,1.21845389 21.6327332,3.78846839 21.6327332,6.83321036 C21.6327332,7.03747979 21.6202851,7.2535544 21.5957149,7.4764601 Z M27.7509246,20.271685 L27.7509246,21.1865202 C27.7509246,21.8261886 27.2395764,22.3465451 26.6110468,22.3465451 L26.0067617,22.3465451 C25.3790143,22.3465451 24.8682525,21.8261223 24.8682525,21.1865202 L24.8682525,20.271685 C24.8682525,19.6327461 25.3790143,19.1129865 26.0067617,19.1129865 L26.6110468,19.1129865 C27.2395764,19.1129865 27.7509246,19.6327461 27.7509246,20.271685 Z M25.8511935,18.187142 C24.7812464,18.2683855 23.9521141,19.1720788 23.9521141,20.271685 L23.9521141,21.1865202 C23.9521141,22.286657 24.7812464,23.1906819 25.8511935,23.2717264 L25.8511935,27.7108062 L16.2912098,30.891772 L16.2912098,18.4916228 L25.8511935,15.310458 L25.8511935,18.187142 Z M15.8335642,15.4720829 C16.0872179,15.4720829 16.293556,15.2623088 16.293556,15.0044518 C16.293556,14.7463959 16.0872179,14.5364891 15.8335642,14.5364891 C15.5795193,14.5364891 15.3729857,14.7463959 15.3729857,15.0044518 C15.3729206,15.2623088 15.5795193,15.4720829 15.8335642,15.4720829 Z M16.2934908,16.6660642 C16.2934908,16.4080083 16.0871527,16.1980352 15.833499,16.1980352 C15.5794542,16.1980352 15.3729206,16.4080083 15.3729206,16.6660642 C15.3729206,16.9241865 15.5795193,17.1341596 15.833499,17.1341596 C16.0871527,17.1341596 16.2934908,16.9241865 16.2934908,16.6660642 Z M17.5775316,2.24504041 C17.5257189,2.06007047 17.3579633,1.93094301 17.1694175,1.93094301 C17.130053,1.93094301 17.0906884,1.93658031 17.0526273,1.94765596 C16.943332,1.97922487 16.8528065,2.05217824 16.7975397,2.15331813 C16.7423381,2.25432539 16.7292383,2.3711171 16.7605866,2.48200622 C17.2722607,4.31320207 18.5213686,5.86120622 20.1877149,6.72908601 C20.2485214,6.76052228 20.313499,6.77643938 20.3808228,6.77643938 C20.5418004,6.77643938 20.6870713,6.68624249 20.7601303,6.54086632 C20.8666232,6.3285057 20.7836578,6.06739896 20.5752342,5.95889741 C19.1191365,5.20091192 18.026444,3.84729534 17.5775316,2.24504041 Z M11.2853931,6.77637306 C11.3529124,6.77637306 11.4179552,6.76045596 11.4788269,6.72888705 C13.1447169,5.86067565 14.3938248,4.3126715 14.90589,2.48213886 C14.9371731,2.37124974 14.9240733,2.25452435 14.8689369,2.15358342 C14.8135397,2.05231088 14.7228187,1.97915855 14.6135234,1.94765596 C14.5753971,1.93651399 14.5360326,1.93087668 14.4966029,1.93087668 C14.308057,1.93087668 14.1401059,2.06007047 14.0882281,2.24504041 C13.6400978,3.84616788 12.547666,5.19985078 11.0911772,5.95889741 C10.8826232,6.06739896 10.799723,6.3285057 10.9065418,6.54106528 C10.9796008,6.68624249 11.1248065,6.77637306 11.2853931,6.77637306 Z M18.8734338,8.0693057 C18.6388106,8.0693057 18.4479185,8.26336166 18.4479185,8.50178653 C18.4479185,8.65233575 18.3269572,8.77483109 18.178167,8.77483109 C18.0295723,8.77483109 17.9086762,8.65233575 17.9086762,8.50178653 C17.9086762,8.26329534 17.7177841,8.0693057 17.4832261,8.0693057 C17.2485377,8.0693057 17.0576456,8.26336166 17.0576456,8.50178653 C17.0576456,9.1295171 17.5603259,9.64019067 18.178167,9.64019067 C18.7958126,9.64019067 19.2982322,9.1295171 19.2982322,8.50178653 C19.2982322,8.26336166 19.107666,8.0693057 18.8734338,8.0693057 Z M14.1803177,8.0693057 C13.94589,8.0693057 13.7551935,8.26336166 13.7551935,8.50178653 C13.7551935,8.65233575 13.6347536,8.77483109 13.4867454,8.77483109 C13.3386721,8.77483109 13.2181018,8.65233575 13.2181018,8.50178653 C13.2181018,8.26329534 13.0274053,8.0693057 12.7930428,8.0693057 C12.5587454,8.0693057 12.3681141,8.26336166 12.3681141,8.50178653 C12.3681141,9.1295171 12.869947,9.64019067 13.4867454,9.64019067 C14.1036741,9.64019067 14.6055071,9.1295171 14.6055071,8.50178653 C14.6055071,8.26336166 14.4147454,8.0693057 14.1803177,8.0693057 Z"/>
</svg>
