<svg xmlns="http://www.w3.org/2000/svg" height="1em" viewBox="0 0 23 32">
  <path fill="currentColor" d="M20.6416053,17.3515521 C21.814433,17.3515521 22.7653701,16.4013615 22.7653701,15.2290291 C22.7653701,14.0566966 21.814433,13.106506 20.6416053,13.106506 C19.4687776,13.106506 18.5178405,14.0566966 18.5178405,15.2290291 C18.5178405,16.4013615 19.4687776,17.3515521 20.6416053,17.3515521 Z M20.6416053,28.1451453 C21.814433,28.1451453 22.7653701,27.1949547 22.7653701,26.0226222 C22.7653701,24.8502898 21.814433,23.9000992 20.6416053,23.9000992 C19.4687776,23.9000992 18.5178405,24.8502898 18.5178405,26.0226222 C18.5178405,27.1949547 19.4687776,28.1451453 20.6416053,28.1451453 Z M2.12376483,8.09990081 C3.2965925,8.09990081 4.24752966,7.14971021 4.24752966,5.97737776 C4.24752966,4.80504531 3.2965925,3.85485471 2.12376483,3.85485471 C0.950937158,3.85485471 0,4.80504531 0,5.97737776 C0,7.14971021 0.950937158,8.09990081 2.12376483,8.09990081 Z M2.12376483,18.893494 C3.2965925,18.893494 4.24752966,17.9433034 4.24752966,16.7709709 C4.24752966,15.5986385 3.2965925,14.6484479 2.12376483,14.6484479 C0.950937158,14.6484479 0,15.5986385 0,16.7709709 C0,17.9433034 0.950937158,18.893494 2.12376483,18.893494 Z M2.12376483,28.1451453 C3.2965925,28.1451453 4.24752966,27.1949547 4.24752966,26.0226222 C4.24752966,24.8502898 3.2965925,23.9000992 2.12376483,23.9000992 C0.950937158,23.9000992 0,24.8502898 0,26.0226222 C0,27.1949547 0.950937158,28.1451453 2.12376483,28.1451453 Z M11.3826851,32 C12.5555127,32 13.5064499,31.0498094 13.5064499,29.8774769 C13.5064499,28.7051445 12.5555127,27.7549539 11.3826851,27.7549539 C10.2098574,27.7549539 9.25892024,28.7051445 9.25892024,29.8774769 C9.25892024,31.0498094 10.2098574,32 11.3826851,32 Z M11.3826851,22.7483487 C12.5555127,22.7483487 13.5064499,21.7981581 13.5064499,20.6258256 C13.5064499,19.4534932 12.5555127,18.5033026 11.3826851,18.5033026 C10.2098574,18.5033026 9.25892024,19.4534932 9.25892024,20.6258256 C9.25892024,21.7981581 10.2098574,22.7483487 11.3826851,22.7483487 Z M11.3826851,13.4966974 C12.5555127,13.4966974 13.5064499,12.5465068 13.5064499,11.3741744 C13.5064499,10.2018419 12.5555127,9.2516513 11.3826851,9.2516513 C10.2098574,9.2516513 9.25892024,10.2018419 9.25892024,11.3741744 C9.25892024,12.5465068 10.2098574,13.4966974 11.3826851,13.4966974 Z M20.6416053,8.09990081 C21.814433,8.09990081 22.7653701,7.14971021 22.7653701,5.97737776 C22.7653701,4.80504531 21.814433,3.85485471 20.6416053,3.85485471 C19.4687776,3.85485471 18.5178405,4.80504531 18.5178405,5.97737776 C18.5178405,7.14971021 19.4687776,8.09990081 20.6416053,8.09990081 Z M11.3826851,4.2450461 C12.5555127,4.2450461 13.5064499,3.2948555 13.5064499,2.12252305 C13.5064499,0.950190601 12.5555127,0 11.3826851,0 C10.2098574,0 9.25892024,0.950190601 9.25892024,2.12252305 C9.25892024,3.2948555 10.2098574,4.2450461 11.3826851,4.2450461 Z M19.5730893,16.1252902 L19.5712346,25.2716817 L11.3845294,28.778823 L2.25522197,24.763434 L1.33581081,26.8488119 L11.3685618,31.2651556 L21.8510911,26.7759258 L21.8510911,14.6670569 L11.361368,9.82037316 L10.4041403,11.8888584 L19.5730893,16.1252902 Z M11.6174665,3.07084348 L20.7474436,7.08979273 L21.6669203,5.00426634 L11.6341693,0.587922586 L1.15164002,5.07715242 L1.15164002,17.1860213 L11.6413631,22.032705 L12.5985908,19.9642198 L3.43247132,15.7290954 L3.43413832,6.57879921 L11.6174665,3.07084348 Z"/>
</svg>
