<svg xmlns="http://www.w3.org/2000/svg" viewBox="0 0 32 32">
  <path fill="currentColor" fill-rule="nonzero" d="M4.42666667,9.53333333 L5.92,13.48 C5.97333333,13.64 6.18666667,13.8 6.4,13.8 C6.61333333,13.8 6.82666667,13.64 6.98666667,13.48 L8.48,9.53333333 L9.06666667,9.53333333 C9.12,9.53333333 9.22666667,9.53333333 9.28,9.48 L18.1333333,5.53333333 L18.1333333,7.08 L11.52,10.12 L11.9466667,11.08 L18.88,7.88 C19.0933333,7.77333333 19.2,7.61333333 19.2,7.4 L19.2,4.73333333 C19.2,4.57333333 19.0933333,4.36 18.9866667,4.30666667 C18.8266667,4.2 18.6133333,4.2 18.4533333,4.25333333 L8.96,8.46666667 L3.73333333,8.46666667 C1.65333333,8.46666667 0,10.12 0,12.2 L0,19.6666667 L1.06666667,19.6666667 L1.06666667,12.2 C1.06666667,10.7066667 2.24,9.53333333 3.73333333,9.53333333 L4.42666667,9.53333333 Z M6.45333333,11.7733333 L5.6,9.53333333 L7.30666667,9.53333333 L6.45333333,11.7733333 Z M9.06666667,30.3333333 L6.93333333,30.3333333 L6.93333333,20.2 L5.86666667,20.2 L5.86666667,30.3333333 L3.73333333,30.3333333 L3.73333333,12.7333333 L2.66666667,12.7333333 L2.66666667,30.8666667 C2.66666667,31.1866667 2.88,31.4 3.2,31.4 L6.4,31.4 L9.6,31.4 C9.92,31.4 10.1333333,31.1866667 10.1333333,30.8666667 L10.1333333,12.7333333 L9.06666667,12.7333333 L9.06666667,30.3333333 Z M5.86666667,14.8666667 L6.93333333,14.8666667 L6.93333333,15.9333333 L5.86666667,15.9333333 L5.86666667,14.8666667 Z M5.86666667,17 L6.93333333,17 L6.93333333,18.0666667 L5.86666667,18.0666667 L5.86666667,17 Z M5.86666667,7.93333333 L6.93333333,7.93333333 C8.42666667,7.93333333 9.6,6.76 9.6,5.26666667 L9.6,3.66666667 C9.6,2.17333333 8.42666667,1 6.93333333,1 L5.86666667,1 C4.37333333,1 3.2,2.17333333 3.2,3.66666667 L3.2,5.26666667 C3.2,6.76 4.37333333,7.93333333 5.86666667,7.93333333 Z M4.26666667,3.66666667 C4.26666667,2.76 4.96,2.06666667 5.86666667,2.06666667 L6.93333333,2.06666667 C7.84,2.06666667 8.53333333,2.76 8.53333333,3.66666667 L8.53333333,5.26666667 C8.53333333,6.17333333 7.84,6.86666667 6.93333333,6.86666667 L5.86666667,6.86666667 C4.96,6.86666667 4.26666667,6.17333333 4.26666667,5.26666667 L4.26666667,3.66666667 Z M31.7333333,25.0533333 L25.8666667,21.32 C25.7066667,21.2133333 25.4933333,21.2133333 25.3333333,21.32 C25.1733333,21.4266667 25.0666667,21.5866667 25.0666667,21.8 L25.0666667,23.4 L13.3333333,23.4 L13.3333333,24.4666667 L25.6,24.4666667 C25.92,24.4666667 26.1333333,24.2533333 26.1333333,23.9333333 L26.1333333,22.76 L30.4533333,25.5333333 L26.1333333,28.3066667 L26.1333333,27.1333333 C26.1333333,26.8133333 25.92,26.6 25.6,26.6 L13.3333333,26.6 L13.3333333,27.6666667 L25.0666667,27.6666667 L25.0666667,29.2666667 C25.0666667,29.48 25.1733333,29.64 25.3333333,29.7466667 C25.44,29.8 25.4933333,29.8 25.6,29.8 C25.7066667,29.8 25.8133333,29.7466667 25.8666667,29.64 L31.7333333,25.9066667 C31.8933333,25.8533333 32,25.64 32,25.48 C32,25.32 31.8933333,25.16 31.7333333,25.0533333 Z M21.3333333,20.7333333 C21.3333333,20.9466667 21.44,21.1066667 21.6,21.2133333 C21.7066667,21.2666667 21.76,21.2666667 21.8666667,21.2666667 C21.9733333,21.2666667 22.08,21.2133333 22.1333333,21.1066667 L28,17.3733333 C28.16,17.32 28.2666667,17.1066667 28.2666667,16.9466667 C28.2666667,16.7866667 28.16,16.6266667 28,16.52 L22.1333333,12.7866667 C21.9733333,12.68 21.76,12.68 21.6,12.7866667 C21.44,12.8933333 21.3333333,13.0533333 21.3333333,13.2666667 L21.3333333,14.8666667 L11.2,14.8666667 L11.2,15.9333333 L21.8666667,15.9333333 C22.1866667,15.9333333 22.4,15.72 22.4,15.4 L22.4,14.2266667 L26.72,17 L22.4,19.7733333 L22.4,18.6 C22.4,18.28 22.1866667,18.0666667 21.8666667,18.0666667 L11.2,18.0666667 L11.2,19.1333333 L21.3333333,19.1333333 L21.3333333,20.7333333 Z M25.0666667,10.0666667 C25.0666667,10.28 25.1733333,10.44 25.3333333,10.5466667 C25.44,10.6 25.4933333,10.6 25.6,10.6 C25.7066667,10.6 25.8133333,10.5466667 25.8666667,10.4933333 L31.7333333,6.76 C31.8933333,6.70666667 32,6.49333333 32,6.33333333 C32,6.17333333 31.8933333,5.96 31.7333333,5.85333333 L25.8666667,2.12 C25.7066667,2.01333333 25.4933333,2.01333333 25.3333333,2.12 C25.1733333,2.22666667 25.0666667,2.38666667 25.0666667,2.6 L25.0666667,4.2 L20.2666667,4.2 L20.2666667,5.26666667 L25.6,5.26666667 C25.92,5.26666667 26.1333333,5.05333333 26.1333333,4.73333333 L26.1333333,3.56 L30.4533333,6.33333333 L26.1333333,9.10666667 L26.1333333,7.93333333 C26.1333333,7.61333333 25.92,7.4 25.6,7.4 L20.2666667,7.4 L20.2666667,8.46666667 L25.0666667,8.46666667 L25.0666667,10.0666667 Z M11.7333333,29.2666667 L12.8,29.2666667 L12.8,30.3333333 L11.7333333,30.3333333 L11.7333333,29.2666667 Z M13.8666667,29.2666667 L14.9333333,29.2666667 L14.9333333,30.3333333 L13.8666667,30.3333333 L13.8666667,29.2666667 Z M16,29.2666667 L17.0666667,29.2666667 L17.0666667,30.3333333 L16,30.3333333 L16,29.2666667 Z M18.1333333,29.2666667 L19.2,29.2666667 L19.2,30.3333333 L18.1333333,30.3333333 L18.1333333,29.2666667 Z M20.2666667,29.2666667 L21.3333333,29.2666667 L21.3333333,30.3333333 L20.2666667,30.3333333 L20.2666667,29.2666667 Z M22.4,29.2666667 L23.4666667,29.2666667 L23.4666667,30.3333333 L22.4,30.3333333 L22.4,29.2666667 Z M11.7333333,20.7333333 L12.8,20.7333333 L12.8,21.8 L11.7333333,21.8 L11.7333333,20.7333333 Z M13.8666667,20.7333333 L14.9333333,20.7333333 L14.9333333,21.8 L13.8666667,21.8 L13.8666667,20.7333333 Z M16,20.7333333 L17.0666667,20.7333333 L17.0666667,21.8 L16,21.8 L16,20.7333333 Z M18.1333333,20.7333333 L19.2,20.7333333 L19.2,21.8 L18.1333333,21.8 L18.1333333,20.7333333 Z M13.8666667,12.2 L14.9333333,12.2 L14.9333333,13.2666667 L13.8666667,13.2666667 L13.8666667,12.2 Z M16,12.2 L17.0666667,12.2 L17.0666667,13.2666667 L16,13.2666667 L16,12.2 Z M18.1333333,12.2 L19.2,12.2 L19.2,13.2666667 L18.1333333,13.2666667 L18.1333333,12.2 Z"/>
</svg>
