<svg xmlns="http://www.w3.org/2000/svg" viewBox="0 0 32 32">
  <path fill="currentColor" fill-rule="nonzero" d="M3.89908408,16.5888131 C3.90662036,16.3391655 3.92970022,15.5797446 4.51941432,15.3642641 C5.10159213,15.152428 5.67293653,15.7032017 5.78127059,15.8152698 C5.95884424,15.9993167 5.94895287,16.287687 5.75913276,16.4594337 C5.56931265,16.6311803 5.27115848,16.6216135 5.09311381,16.4380223 C5.03329457,16.3769771 4.94945343,16.3122873 4.88115587,16.2708313 C4.86372822,16.3382543 4.84535853,16.4471335 4.84064835,16.6156912 C4.80532203,17.7878507 5.74311816,18.1609555 5.78268364,18.1759891 C5.94942389,18.2397677 6.06812034,18.3905585 6.0831929,18.5632163 C6.36203535,21.7794798 8.98089346,22.8199821 10.2055393,22.8199821 C11.4301852,22.8199821 14.0495144,21.7794798 14.3283568,18.5632163 C14.3434294,18.3878251 14.4621258,18.2361232 14.6326342,18.1746224 C14.6684315,18.1609555 15.6062277,17.7878507 15.5709014,16.6156912 C15.5657202,16.4471335 15.5473505,16.3382543 15.5303938,16.2708313 C15.4616253,16.3127429 15.3777841,16.3774326 15.3170228,16.439389 C15.1380361,16.6216135 14.840353,16.6298136 14.6514749,16.458067 C14.4625968,16.2863203 14.4527055,15.9993167 14.6298081,15.816181 C14.7386132,15.7036573 15.3104286,15.1519724 15.8916644,15.3651752 C16.4813785,15.5806557 16.5044583,16.3400766 16.5119946,16.5897242 C16.5539152,17.9673419 15.6976051,18.6374728 15.2393049,18.8962317 C14.8224543,22.2286634 12.0759504,23.732016 10.2050683,23.732016 C8.33418623,23.732016 5.58768234,22.2291189 5.17083172,18.8962317 C4.71347359,18.6365617 3.85716351,17.9664308 3.89908408,16.5888131 Z M10.2060104,25.9360221 C10.3520258,25.9360221 11.5408744,25.6508407 11.5408744,24.4991814 L10.2060104,24.4991814 L8.87114635,24.4991814 C8.87067533,25.6508407 10.0599949,25.9360221 10.2060104,25.9360221 Z M11.0623204,26.1036687 C10.9398559,26.0827129 10.8126811,26.1073132 10.7090572,26.1751918 C10.490976,26.3196048 10.2955037,26.3779167 10.2060104,26.3988725 C10.1136909,26.3774611 9.91916061,26.3186937 9.70155046,26.1751918 C9.5983976,26.1073132 9.47169385,26.0822573 9.34828723,26.1036687 C9.22535162,26.1259912 9.11701756,26.194781 9.04636492,26.2945489 C8.85466073,26.5665191 7.9328792,31.1845451 7.9248719,31.2296457 C7.87918319,31.4774711 8.05016259,31.7139074 8.30639619,31.7576413 C8.56498488,31.8027419 8.80708795,31.636462 8.85230565,31.3886366 C9.00915452,30.5330923 9.50325203,28.2425295 9.7453551,27.2143274 C9.96861747,27.292684 10.1264084,27.3118175 10.1541984,27.3150065 C10.1876407,27.318651 10.222496,27.318651 10.2559382,27.3150065 C10.2837283,27.3122731 10.4415192,27.2931395 10.6647815,27.2143274 C10.9068846,28.2425295 11.4009821,30.5330923 11.558302,31.3886366 C11.5988095,31.6095839 11.797108,31.7644748 12.0213124,31.7644748 C12.0486314,31.7644748 12.0764214,31.7621969 12.1042115,31.7571858 C12.3604451,31.7134519 12.5309535,31.4770155 12.4857358,31.2291901 C12.4772575,31.1840895 11.5559469,26.5660635 11.3637717,26.2940934 C11.2940611,26.194781 11.185256,26.1259912 11.0623204,26.1036687 Z M4.36868867,29.8729838 C4.10868693,29.8729838 3.89767102,30.0770753 3.89767102,30.3285452 L3.89767102,31.3089133 C3.89767102,31.5603832 4.10868693,31.7644748 4.36868867,31.7644748 C4.62869041,31.7644748 4.83970632,31.5603832 4.83970632,31.3089133 L4.83970632,30.3285452 C4.83970632,30.0770753 4.62869041,29.8729838 4.36868867,29.8729838 Z M6.08413494,12.7233746 C5.65362481,13.2249477 5.37619542,13.8527113 5.28057883,14.540609 C5.24619455,14.7898011 5.42706532,15.0189485 5.68471197,15.0526601 C5.70590777,15.0553934 5.72710356,15.0567601 5.74782834,15.0567601 C5.98004004,15.0567601 6.18210661,14.8904802 6.21413581,14.6617884 C6.28573049,14.1442706 6.4915652,13.6750424 6.8090311,13.3055821 C6.97530032,13.1119685 6.94751028,12.8249648 6.74732778,12.6641516 C6.5476163,12.5033384 6.25040417,12.529761 6.08413494,12.7233746 Z M13.9270498,15.0531156 C13.9270498,15.3045855 14.1380657,15.508677 14.3980674,15.508677 C14.6580692,15.508677 14.8690851,15.3045855 14.8690851,15.0531156 C14.8690851,12.4350042 12.8512455,11.717495 11.7777962,11.7033726 L7.48070226,11.7033726 C7.22070052,11.7033726 7.00968461,11.9074641 7.00968461,12.158934 C7.00968461,12.4104039 7.22070052,12.6144954 7.48070226,12.6144954 L11.7688469,12.6144954 C11.9902252,12.6195066 13.9270498,12.7306636 13.9270498,15.0531156 Z M15.4931834,14.0372137 C15.5115531,14.0372137 15.5299228,14.0363025 15.5487635,14.0340247 C15.8068812,14.0048688 15.9919911,13.7784548 15.961846,13.5288071 C15.6462642,10.9193514 13.3288574,10.2524095 12.1404798,10.2815654 L8.08831502,10.2815654 C7.82831328,10.2815654 7.61729738,10.4856569 7.61729738,10.7371268 C7.61729738,10.9885967 7.82831328,11.1926882 8.08831502,11.1926882 L12.146132,11.1926882 C12.251169,11.1967883 14.7315479,11.198155 15.026405,13.6349529 C15.054195,13.8663781 15.2576746,14.0372137 15.4931834,14.0372137 Z M31.5299212,0 L0.560510999,0 C0.300509258,0 0.0894933528,0.204091511 0.0894933528,0.455561408 L0.0894933528,24.2103555 C0.0894933528,24.4618254 0.300509258,24.6659169 0.560510999,24.6659169 L3.42288524,24.6659169 C1.78185976,25.8471876 0,27.9104252 0,31.3093689 C0,31.5608388 0.211015906,31.7649303 0.471017646,31.7649303 C0.731019387,31.7649303 0.942035293,31.5608388 0.942035293,31.3093689 C0.942035293,26.718221 4.48597206,24.885953 5.85286527,24.3502128 L5.91598164,25.4695272 C5.92445996,25.6207736 6.01018517,25.7578976 6.1444252,25.8357986 C6.21884598,25.8786214 6.30221611,25.9004883 6.38605725,25.9004883 C6.45435481,25.9004883 6.52265237,25.8863659 6.58623975,25.85721 L8.15661258,25.1442564 C8.39212141,25.0371994 8.4933902,24.7661404 8.38270105,24.5383597 C8.27201191,24.3101234 7.99081437,24.2130888 7.75624758,24.3196902 L6.81798043,24.7456401 L6.71671164,22.9516393 C6.70258111,22.7001694 6.47837671,22.5102003 6.22073006,22.5215893 C5.96119933,22.5352562 5.76195887,22.7498256 5.7760894,23.0012955 L5.79869824,23.3994562 C5.59380557,23.4741682 5.30177463,23.5903364 4.95510564,23.7566163 C4.95227953,23.7566163 1.03152865,23.7547941 1.03152865,23.7547941 L1.03152865,0.911122817 L31.0589036,0.911122817 L31.0589036,23.7547941 L22.7831236,23.7547941 C24.2861409,20.6624432 23.969617,16.9487066 23.9521894,16.7578264 C23.9305225,16.5227567 23.7270429,16.34281 23.4830558,16.34281 L21.167062,16.34281 C20.9070603,16.34281 20.6960444,16.5469015 20.6960444,16.7983714 C20.6960444,19.1276568 20.0531053,20.820523 18.7846548,21.8295916 C17.3117826,23.0012955 15.3528202,22.9548282 14.5591554,22.8773828 C14.5134667,22.6842248 14.3481395,22.5329784 14.1333555,22.5215893 C13.8752378,22.5083781 13.6515044,22.7001694 13.6373739,22.9516393 L13.5356341,24.7456401 L12.6736718,24.3543129 C12.438163,24.2477115 12.1579075,24.3447461 12.0472183,24.5729824 C11.9365292,24.8007631 12.037798,25.0718221 12.2733068,25.178879 L13.7673748,25.85721 C13.8309622,25.8859103 13.8992597,25.9004883 13.9675573,25.9004883 C14.0513984,25.9004883 14.1347685,25.8790769 14.2091893,25.8357986 C14.3434294,25.7583531 14.4291546,25.6207736 14.4376329,25.4695272 L14.5327785,23.7930612 C15.507785,23.8832624 17.6678719,23.8932847 19.3762529,22.5384451 C20.7888348,21.4186752 21.5457602,19.6419857 21.6300724,17.2539328 L23.035589,17.2539328 C23.0808067,18.5714164 23.0242846,22.7083695 20.738907,25.1219339 C19.5863268,26.3391939 18.0060626,26.9560241 16.04239,26.9560241 C15.7823883,26.9560241 15.5713724,27.1601156 15.5713724,27.4115855 C15.5713724,27.6630554 15.7823883,27.8671469 16.04239,27.8671469 C18.2825499,27.8671469 20.0973809,27.1496377 21.4360131,25.734664 C21.7506529,25.4016486 22.0257272,25.0422106 22.2687723,24.6659169 L24.5814689,24.6659169 L24.5814689,31.5444386 C24.5814689,31.7959085 24.7924848,32 25.0524866,32 C25.3124883,32 25.5235042,31.7959085 25.5235042,31.5444386 L25.5235042,24.6659169 L26.7010483,24.6659169 L26.7010483,31.5444386 C26.7010483,31.7959085 26.9120642,32 27.172066,32 C27.4320677,32 27.6430836,31.7959085 27.6430836,31.5444386 L27.6430836,24.6659169 L31.5289792,24.6659169 C31.788981,24.6659169 31.9999969,24.4618254 31.9999969,24.2103555 L31.9999969,0.455561408 C32.0009389,0.204091511 31.789923,0 31.5299212,0 Z M16.0433321,28.4475321 C15.7833303,28.4475321 15.5723144,28.6516236 15.5723144,28.9030935 L15.5723144,31.3089133 C15.5723144,31.5603832 15.7833303,31.7644748 16.0433321,31.7644748 C16.3033338,31.7644748 16.5143497,31.5603832 16.5143497,31.3089133 L16.5143497,28.9030935 C16.5143497,28.6516236 16.3033338,28.4475321 16.0433321,28.4475321 Z M14.1079205,3.73879248 C14.3679223,3.73879248 14.5789382,3.53470097 14.5789382,3.28323107 C14.5789382,3.03176117 14.3679223,2.82766966 14.1079205,2.82766966 L5.71108896,2.82766966 C5.45108722,2.82766966 5.24007132,3.03176117 5.24007132,3.28323107 C5.24007132,3.53470097 5.45108722,3.73879248 5.71108896,3.73879248 L14.1079205,3.73879248 Z M3.22929698,5.08679868 C3.22929698,5.33826858 3.44031289,5.54236009 3.70031463,5.54236009 L14.1079205,5.54236009 C14.3679223,5.54236009 14.5789382,5.33826858 14.5789382,5.08679868 C14.5789382,4.83532879 14.3679223,4.63123728 14.1079205,4.63123728 L3.70031463,4.63123728 C3.44031289,4.63123728 3.22929698,4.83532879 3.22929698,5.08679868 Z M3.70031463,7.34592771 L14.1079205,7.34592771 C14.3679223,7.34592771 14.5789382,7.1418362 14.5789382,6.8903663 C14.5789382,6.6388964 14.3679223,6.43480489 14.1079205,6.43480489 L3.70031463,6.43480489 C3.44031289,6.43480489 3.22929698,6.6388964 3.22929698,6.8903663 C3.22929698,7.1418362 3.44031289,7.34592771 3.70031463,7.34592771 Z M3.70031463,9.14949532 L14.1079205,9.14949532 C14.3679223,9.14949532 14.5789382,8.94540381 14.5789382,8.69393392 C14.5789382,8.44246402 14.3679223,8.23837251 14.1079205,8.23837251 L3.70031463,8.23837251 C3.44031289,8.23837251 3.22929698,8.44246402 3.22929698,8.69393392 C3.22929698,8.94540381 3.44031289,9.14949532 3.70031463,9.14949532 Z M29.9892225,4.10643053 C30.187521,3.94425067 30.2124849,3.65679142 30.0443316,3.46454451 C29.8766493,3.27275316 29.5794372,3.24815284 29.3806677,3.41124383 L24.2786046,7.58646413 L21.6088766,4.877696 C21.4515567,4.68636021 21.1651779,4.65037086 20.9612273,4.7938727 L17.7592493,7.39512834 C17.5496465,7.54409692 17.5044288,7.82927836 17.6584516,8.03200319 C17.8120033,8.23427245 18.1068604,8.27846191 18.3169342,8.12949333 L21.1538735,5.78745213 L23.8438553,8.52082058 C23.9229863,8.61694404 24.0397986,8.67844483 24.1665024,8.69074499 C24.182046,8.69211167 24.1971185,8.69302279 24.2126621,8.69302279 C24.3233513,8.69302279 24.4316853,8.6552112 24.5169395,8.58505474 L29.9892225,4.10643053 Z M21.7930445,8.71397862 L21.6418478,12.0213544 C21.8627551,11.9976652 22.0586984,11.9972097 22.1877572,11.9972097 C22.6973983,11.9972097 24.2479884,11.9972097 24.2479884,13.464573 L24.2479884,14.0932477 C24.2479884,15.1920618 23.3238518,16.0858733 22.1877572,16.0858733 C21.0516627,16.0858733 20.1275261,15.1920618 20.1275261,14.0932477 L20.1275261,13.464573 C20.1275261,12.8910212 20.36539,12.5434278 20.6847399,12.3306806 L20.8519512,8.67388921 C20.8637266,8.42241932 21.1015906,8.23245021 21.3432226,8.23882807 C21.6027533,8.2502171 21.8043489,8.46296428 21.7930445,8.71397862 Z M22.1877572,12.9083325 C21.0695614,12.9083325 21.0695614,13.2039919 21.0695614,13.464573 L21.0695614,14.0932477 C21.0695614,14.6895776 21.5711952,15.1747505 22.1877572,15.1747505 C22.8043193,15.1747505 23.3059531,14.6895776 23.3059531,14.0932477 L23.3059531,13.464573 C23.3059531,13.2039919 23.3059531,12.9083325 22.1877572,12.9083325 Z M10.2597064,16.7983714 L10.2597064,19.1053343 L9.6812967,19.1053343 C9.42129496,19.1053343 9.21027906,19.3094259 9.21027906,19.5608957 C9.21027906,19.8123656 9.42129496,20.0164572 9.6812967,20.0164572 L10.730724,20.0164572 C10.9907258,20.0164572 11.2017417,19.8123656 11.2017417,19.5608957 L11.2017417,16.7983714 C11.2017417,16.5469015 10.9907258,16.34281 10.730724,16.34281 C10.4707223,16.34281 10.2597064,16.5464459 10.2597064,16.7983714 Z"/>
</svg>
