<svg xmlns="http://www.w3.org/2000/svg" viewBox="0 0 32 32">
  <path fill="currentColor" fill-rule="nonzero" d="M25.8924198,10.5817037 L25.8924198,5.04102432 C25.8924198,4.08226905 25.1140572,3.30225591 24.1573159,3.30225591 L21.704265,3.30225591 C21.0984157,3.30225591 20.5466601,3.61578932 20.2331122,4.11929747 C20.0967701,4.05810589 19.9591245,3.99952653 19.8197192,3.94421247 C19.8221306,3.88863719 19.8238251,3.83319252 19.8238251,3.77827029 C19.8238902,1.69494818 18.1323872,0 16.0531693,0 C13.9741469,0 12.282709,1.69494818 12.282709,3.77827029 C12.282709,3.83345374 12.2852507,3.88857188 12.287597,3.94375533 C12.1534707,3.9969796 12.0209086,4.05320795 11.8896499,4.1117873 C11.5789045,3.5931935 11.0186764,3.26901523 10.4025949,3.26901523 L7.94954401,3.26901523 C6.99267232,3.26901523 6.21417945,4.04902837 6.21417945,5.00778364 L6.21417945,10.5816384 C5.93830165,11.5104836 5.79003281,12.4938592 5.79003281,13.5113244 L5.79003281,13.6365158 C5.48873749,13.7154052 5.2654544,13.9895592 5.2654544,14.3156967 L5.2654544,15.943837 C5.2654544,16.2215175 5.42753994,16.4613859 5.6615766,16.5754099 C5.6615766,16.5754099 5.15785358,17.850768 5.03219981,18.2897539 C5.02118556,18.3282844 5.00762955,18.4076963 5.0041102,18.4475982 C4.95685969,18.9841511 5.32306743,19.4548757 5.79003281,19.6912829 L5.79003281,29.8338048 C5.79003281,31.0282489 6.7597436,32 7.95156438,32 L24.1545786,32 C25.3466601,32 26.3165012,31.0282489 26.3165012,29.8338048 L26.3165012,13.5113244 C26.3165664,12.4939245 26.1682976,11.5105489 25.8924198,10.5817037 Z M21.704265,4.21653789 L24.1573159,4.21653789 C24.6109208,4.21653789 24.9799961,4.58636495 24.9799961,5.04102432 L24.9799961,8.44091249 C24.0526479,6.80793956 22.6920287,5.45290836 21.0558577,4.53385905 C21.2094055,4.33657005 21.446375,4.21653789 21.704265,4.21653789 Z M16.0531693,0.914281983 C17.5803057,0.914281983 18.8314992,2.12054645 18.9077517,3.63205048 C18.6780817,3.5653079 18.4450226,3.50666324 18.2090959,3.45592059 C18.0531367,2.40390856 17.1458617,1.59411594 16.0531693,1.59411594 C14.9606723,1.59411594 14.0535277,2.40384325 13.8975033,3.45578998 C13.6615766,3.50653263 13.4285827,3.56524259 13.1988475,3.63191987 C13.2751652,2.12048114 14.5262283,0.914281983 16.0531693,0.914281983 Z M17.2244605,3.29422329 C16.8398739,3.25020714 16.4492263,3.22682765 16.0530389,3.22682765 C15.6571122,3.22682765 15.2665949,3.25020714 14.8821387,3.29415798 C15.0725094,2.83349048 15.5254625,2.50839792 16.0531693,2.50839792 C16.5810063,2.50839792 17.0340898,2.83355578 17.2244605,3.29422329 Z M7.12666825,5.00784895 C7.12666825,4.55318958 7.49580877,4.18336252 7.94960918,4.18336252 L10.4026601,4.18336252 C10.6704564,4.18336252 10.9160939,4.3125375 11.0687293,4.52347541 C9.42460715,5.44265534 8.05747069,6.80180081 7.12673342,8.44078187 L7.12673342,5.00784895 L7.12666825,5.00784895 Z M16.0530389,4.14110963 C20.7722243,4.14110963 24.6854788,7.66253199 25.314986,12.2206848 C24.7885827,11.1193669 24.0637273,10.1106526 23.1616662,9.24254187 C21.24121,7.39438615 18.7166642,6.37652908 16.0530389,6.37652908 C13.676045,6.37652908 11.3588149,7.20957057 9.52810205,8.72218481 C8.36528332,9.68296456 7.43233016,10.8876617 6.78978841,12.2335501 C7.41369065,7.66919319 11.3296825,4.14110963 16.0530389,4.14110963 Z M6.47845643,18.9402655 C6.19462751,18.9402655 5.89795949,18.7564949 5.92181285,18.5147326 C5.96150328,18.1128404 6.47845643,16.9987225 6.47845643,16.9987225 C6.47845643,16.9987225 6.99540959,18.1128404 7.03510002,18.5147326 C7.05901855,18.7565602 6.76235053,18.9402655 6.47845643,18.9402655 Z M6.17794319,14.5272876 L6.77903484,14.5272876 L6.77903484,15.7321154 L6.17794319,15.7321154 L6.17794319,14.5272876 Z M22.2589534,27.026306 C22.2589534,27.026306 22.7759717,28.1404239 22.8156621,28.5423162 C22.8395155,28.7840784 22.5427823,28.9678491 22.2590186,28.9678491 C21.9752548,28.9678491 21.6785216,28.7840784 21.702375,28.5423162 C21.7420002,28.1403586 22.2589534,27.026306 22.2589534,27.026306 Z M21.9585053,25.7596336 L21.9585053,25.1250566 L22.559597,25.1250566 L22.559597,25.7596336 L21.9585053,25.7596336 Z M7.52441977,24.2107746 C7.07505114,24.2107746 6.70929961,23.8476088 6.70252161,23.3987616 L6.70252161,22.2645948 C6.70252161,21.5742466 7.26288006,21.012551 7.95162955,21.012551 L24.1546438,21.012551 C24.7941876,21.012551 25.322155,21.4966633 25.394823,22.1182444 L25.394823,23.3861576 C25.394823,23.8408823 25.0257477,24.2107746 24.5720776,24.2107746 L7.52441977,24.2107746 L7.52441977,24.2107746 Z M25.4041428,29.8337395 C25.4041428,30.5240224 24.8435888,31.0856527 24.1546438,31.0856527 L7.95162955,31.0856527 C7.26288006,31.0856527 6.70252161,30.5240224 6.70252161,29.8337395 L6.70252161,24.9171881 C6.94731183,25.0496937 7.22723036,25.1251219 7.52441977,25.1251219 L21.0460817,25.1251219 L21.0460817,25.9713552 C21.0460817,26.2490357 21.2081672,26.4889041 21.4422039,26.6029282 C21.4422039,26.6029282 20.9318332,27.8764576 20.8128271,28.3172722 C20.8023994,28.3559985 20.7876703,28.4351492 20.7847375,28.4751164 C20.7279717,29.2488602 21.4460491,29.8821311 22.2590186,29.8821311 C23.071988,29.8821311 23.8012752,29.2479459 23.7332996,28.4751164 C23.7297803,28.4352146 23.7162243,28.3558026 23.70521,28.3172722 C23.5797517,27.8782209 23.0757029,26.6029935 23.0757029,26.6029935 C23.3098699,26.4890347 23.4719554,26.249101 23.4719554,25.9713552 L23.4719554,25.1251219 L24.5720776,25.1251219 C24.8733729,25.1251219 25.1569412,25.0476692 25.4041428,24.9117024 L25.4041428,29.8337395 Z M25.4041428,20.4984633 C25.0510348,20.2468398 24.6199799,20.0983343 24.1546438,20.0983343 L7.95162955,20.0983343 C7.48648902,20.0983343 7.05556438,20.2468398 6.70252161,20.4983327 L6.70252161,19.838417 C7.40951957,19.7351031 8.01439126,19.1480688 7.95280266,18.4475982 C7.94928332,18.4076963 7.93292486,18.3186191 7.92191061,18.280154 C7.79625684,17.841168 7.29520592,16.5754752 7.29520592,16.5754752 C7.52930776,16.4615165 7.69145847,16.2215828 7.69145847,15.943837 L7.69145847,14.3156967 C7.69145847,14.0007918 7.48355623,13.7335603 7.19796763,13.6446137 C8.46832201,9.90265346 12.0250145,7.29087636 16.0531041,7.29087636 C21.0769086,7.29087636 25.1805338,11.2271215 25.3953444,16.2522112 L25.404208,16.2518194 L25.404208,20.4984633 L25.4041428,20.4984633 Z"/>
</svg>
